<?xml version="1.0" encoding="UTF-8"?>
<svg xmlns="http://www.w3.org/2000/svg" xmlns:xlink="http://www.w3.org/1999/xlink" xmlns:xlink="http://www.w3.org/1999/xlink" width="211" height="322" viewBox="0 0 211 322">
  <defs xmlns:xlink="http://www.w3.org/1999/xlink">
    <rect xmlns="http://www.w3.org/2000/svg" width="207" height="318" rx="15" ry="15" x="0.5" y="-871.13782" id="card_body" style="fill:url(#linearGradient4973);fill-opacity:1;stroke:#000000;stroke-width:1;stroke-linecap:square;stroke-linejoin:miter;stroke-miterlimit:4;stroke-opacity:1;stroke-dasharray:none"/>
    <path xmlns="http://www.w3.org/2000/svg" d="m 836.3571,-856.63781 25.4286,0 m 25.4286,0 25.4285,0 m 25.4286,0 25.4286,0 0,288.99998 -25.4286,0 m -25.4286,0 -25.4285,0 m -25.4286,0 -25.4286,0 m -25.4286,0 -25.4285,0 0,-288.99998 25.4285,0" id="frame_bastos" style="fill:none;stroke:#000000;stroke-opacity:1"/>
    <g xmlns="http://www.w3.org/2000/svg" xmlns:xlink="http://www.w3.org/1999/xlink" id="g3158">
      <use transform="matrix(0.99995934,0,0,0.99995934,-903.67557,79.973904)" id="use7997" x="0" y="0" width="2485" height="1592" xlink:href="#text7875"/>
      <use transform="matrix(-0.99995934,0,0,-0.99995934,1525.6748,-840.24902)" id="use8003" x="0" y="0" width="2485" height="1592" xlink:href="#text7875"/>
    </g>
    <g xmlns="http://www.w3.org/2000/svg" transform="matrix(1.0614204,0,0,1.0614204,1240.5118,-912.68434)" id="g3965">
      <g transform="matrix(2.4560211,0.02797092,-0.0218098,2.1777698,-191.65629,-316.44198)" id="g3806" style="fill:#fce94f;fill-opacity:1;stroke-width:0.43236765;stroke-miterlimit:4;stroke-dasharray:none">
        <path d="m 104.05949,269.5 a 1.5594888,4.9188237 0 1 1 -3.11898,0 1.5594888,4.9188237 0 1 1 3.11898,0 z" transform="matrix(0.7736649,0.43655724,-0.33438665,1.0443282,115.754,-57.393792)" id="path3764" style="color:#000000;fill:#fce94f;fill-opacity:1;fill-rule:nonzero;stroke:#000000;stroke-width:0.44268307;stroke-miterlimit:4;stroke-opacity:1;stroke-dasharray:none;marker:none;visibility:visible;display:inline;overflow:visible;enable-background:accumulate"/>
        <path d="m 103.40738,268.74146 a 0.69580537,3.4834313 0 1 1 -1.39161,0 0.69580537,3.4834313 0 1 1 1.39161,0 z" transform="matrix(0.50093417,0.14484058,-0.14484058,0.50093417,92.308461,119.86021)" id="path3802" style="color:#000000;fill:#a40000;fill-opacity:1;fill-rule:nonzero;stroke:#000000;stroke-width:0.82915848;stroke-linecap:butt;stroke-linejoin:round;stroke-miterlimit:4;stroke-opacity:1;stroke-dasharray:none;stroke-dashoffset:0;marker:none;visibility:visible;display:inline;overflow:visible;enable-background:accumulate"/>
      </g>
      <path d="m 36.451473,83.92318 c 1.721087,10.680628 3.22443,38.8195 5.353904,60.86349 0.3924,4.06207 0.805007,8.16971 1.233462,12.29934 0.850948,8.20179 1.764412,16.49033 2.706255,24.68088 0.470143,4.08852 -1.052641,8.15262 -0.572602,12.16933 0.881596,7.37669 3.77272,14.59353 4.64707,21.5082 0.987944,7.813 3.047566,15.685 3.709602,22.63014 C 55.892342,262.86566 55.125,280.25 55.125,280.25 c 0,0 2.052204,-14.96577 9.875,-19.25 l 3.224106,-32.72198 c 0.328979,-2.48558 3.471998,-5.83473 3.745419,-8.34052 0.273421,-2.50579 -2.573239,-4.29291 -1.998621,-9.8231 1.801849,-17.39403 3.602518,-36.02932 4.903115,-51.8222 0,0 0.883345,-7.92173 1.484931,-10.53719 0.601586,-2.61546 1.970377,-5.19049 2.086415,-6.70032 -0.352712,-0.97858 -1.622105,0.65114 -1.64452,-2.53405 -0.02242,-3.18519 2.478041,-8.51064 -0.832748,-8.67231 0.184162,-2.87707 0.364126,-5.7172 0.519767,-8.5585 0.155641,-2.8413 1.073322,-5.10131 1.198064,-7.84235 0.412192,-9.82099 -0.623324,-18.907352 -0.765966,-28.690087 -0.05004,-3.151816 0.586896,-4.533775 0.698053,-6.574873 C 77.729171,76.141422 76.992239,67.144553 76.302831,64.49241 75.613423,61.840266 74.437464,60.994246 74.437464,60.994246 72.521972,59.627743 68.076815,39.705085 61.710511,40.005889 l -1.36e-4,-3.09e-4 c -1.425376,0.141233 -2.92971,0.855806 -4.900111,0.910571 -6.305284,0.175246 -14.640198,7.362385 -19.218513,21.170457 -1.478343,4.458641 2.12912,13.079132 2.306867,24.488222 0,0 -2.739599,-5.692123 -3.447145,-2.65165 z" id="path2999" style="fill:#4e9a06;fill-opacity:1;stroke:#000000;stroke-width:0.87978262;stroke-linecap:butt;stroke-linejoin:miter;stroke-miterlimit:4;stroke-opacity:1;stroke-dasharray:none"/>
      <path d="m 58.502312,158.46291 c 1.260081,15.85345 2.212132,31.77989 2.488361,47.75264 0.07362,1.85454 0.13723,9.78788 0.146762,4.19737 0.13367,-15.31148 0.202158,-44.38301 0.202158,-44.38301 -0.174323,-11.29084 1.225647,-21.33527 1.204937,-32.62241 0.111548,-7.35985 0.227329,-14.69535 -0.159616,-22.05946 -0.07629,-13.089354 1.318488,-23.815748 1.046272,-36.906676 -1.190374,-6.026521 -0.08743,-20.998633 -5.286664,-21.331938 -5.621464,3.432355 -2.479428,8.730982 -2.930228,13.298118 0.119243,8.24717 -0.08,21.376887 -0.06543,25.698371 0.89846,2.961849 2.554105,44.377025 3.353448,66.356995 z" id="path3874" style="fill:#fce94f;fill-opacity:1;stroke:none"/>
      <g transform="matrix(-0.58607701,-0.19390236,0.31346991,-0.94747435,88.41649,206.41706)" id="g3780" style="fill:#fce94f;fill-opacity:1">
        <path d="m 107.97758,269.5 a 5.4775782,2.9164438 0 1 1 -10.955158,0 5.4775782,2.9164438 0 1 1 10.955158,0 z" transform="matrix(0.7736649,0.43655724,-0.33438665,1.0443282,104.16428,-214.20943)" id="path3782" style="color:#000000;fill:#fce94f;fill-opacity:1;fill-rule:nonzero;stroke:#000000;stroke-width:1;stroke-opacity:1;marker:none;visibility:visible;display:inline;overflow:visible;enable-background:accumulate"/>
        <path d="m 89.772664,108.57167 c 0,0 0.378847,-2.29697 -0.756937,-6.20688" id="path3784" style="fill:#fce94f;fill-opacity:1;stroke:#000000;stroke-width:1px;stroke-linecap:butt;stroke-linejoin:miter;stroke-opacity:1"/>
        <path d="m 97.64823,114.32796 c 0,0 1.589353,-2.20062 5.34469,-2.23064" id="path3786" style="fill:none;stroke:#000000;stroke-width:0.76862556px;stroke-linecap:butt;stroke-linejoin:miter;stroke-opacity:1"/>
        <path d="m 96.069681,112.09142 a 2.6637211,1.0343869 0 1 1 -5.327442,0 2.6637211,1.0343869 0 1 1 5.327442,0 z" transform="matrix(0.68424037,0.61042655,-0.76487397,0.77911309,115.22964,-32.257949)" id="path3788" style="color:#000000;fill:#a40000;fill-opacity:1;stroke:#000000;stroke-width:1;stroke-linecap:butt;stroke-linejoin:round;stroke-miterlimit:4;stroke-opacity:1;stroke-dasharray:none;stroke-dashoffset:0;marker:none;visibility:visible;display:inline;overflow:visible;enable-background:accumulate"/>
      </g>
      <path d="m 97.493416,143.39075 c -1.436465,-2.63352 1.567807,-3.19151 2.974094,-1.62224 1.4858,1.65801 0.83545,4.25168 -0.877597,5.46582 -2.148573,1.52282 -5.161552,0.74085 -6.562198,-1.40775 -1.618872,-2.48335 -0.714932,-5.86007 1.756287,-7.40309 2.751685,-1.71815 6.440318,-0.71112 8.104198,2.02465 1.81267,2.98042 0.7165,6.94326 -2.24683,8.71387 -3.182098,1.90133 -7.39093,0.72627 -9.257952,-2.43854 -1.984422,-3.36381 -0.738261,-7.79674 2.60848,-9.75218 2.90948,-1.69995 6.695312,-1.14902 9.049732,1.24378" transform="matrix(-0.22630241,0.01361178,0.14871861,1.3281869,49.280837,3.7656156)" id="path3884" style="fill:none;stroke:#2e3436;stroke-width:0.69669986;stroke-linecap:butt;stroke-linejoin:miter;stroke-miterlimit:4;stroke-opacity:1;stroke-dasharray:none"/>
      <path d="m 38.417101,65.429313 c -0.532973,-1.584663 1.523124,-7.86185 4.414245,-12.594859 4.097718,-6.708311 7.008542,-8.534435 11.948025,-10.554299 M 39.435435,63.184013 c 0.01093,-1.862947 2.021111,-6.778206 4.158401,-10.28769 3.587965,-5.891528 6.923402,-7.874522 10.264813,-9.128138 M 40.673613,61.96129 c -0.07078,-1.52619 1.795562,-5.71532 3.639358,-8.757618 3.033356,-5.005096 5.268246,-6.355632 8.548422,-7.823761 M 42.076187,59.861018 c 0.126313,-1.230235 1.743964,-4.573651 2.985794,-6.641513 2.41371,-4.019244 4.881285,-5.537382 6.693946,-6.052984 m -7.862993,10.092944 c 0.216605,-0.722764 1.495344,-3.074909 2.050477,-4.021343 1.683786,-2.870649 3.272498,-3.843773 4.53368,-4.004802 m -4.196419,5.496503 c 0.63955,-1.332197 1.883776,-2.603646 2.544809,-2.827238" id="path3936" style="fill:none;stroke:#2e3436;stroke-width:0.43794066;stroke-linecap:butt;stroke-linejoin:miter;stroke-miterlimit:4;stroke-opacity:1"/>
      <g transform="translate(0.61113591,0.29419417)" id="g3870">
        <path d="m 107.97758,269.5 a 5.4775782,2.9164438 0 1 1 -10.955158,0 5.4775782,2.9164438 0 1 1 10.955158,0 z" transform="matrix(-0.099526,-0.63973553,0.52030263,-0.75230154,-60.305486,487.96915)" id="path3782-7" style="color:#000000;fill:#fce94f;fill-opacity:1;fill-rule:nonzero;stroke:#000000;stroke-width:1.56607974;stroke-miterlimit:4;stroke-opacity:1;stroke-dasharray:none;marker:none;visibility:visible;display:inline;overflow:visible;enable-background:accumulate"/>
        <path d="m 96.069681,112.09142 a 2.6637211,1.0343869 0 1 1 -5.327442,0 2.6637211,1.0343869 0 1 1 5.327442,0 z" transform="matrix(-0.00359655,-0.56026224,0.62630431,-0.28361578,-0.17319024,303.83543)" id="path3788-9" style="color:#000000;fill:#a40000;fill-opacity:1;stroke:#000000;stroke-width:1.27403986;stroke-linecap:butt;stroke-linejoin:round;stroke-miterlimit:4;stroke-opacity:1;stroke-dasharray:none;stroke-dashoffset:0;marker:none;visibility:visible;display:inline;overflow:visible;enable-background:accumulate"/>
      </g>
      <path d="m 55.143922,222.12636 c 0,0 0.06517,0.70505 1.90035,10.07628 1.929753,14.95909 1.811959,23.55551 1.811959,23.55551 m -5.005203,-37.16732 c 0,0 0.462922,4.24058 2.298098,13.61181 1.929753,14.95909 1.944542,27.04685 1.944542,27.04685 m -5.535533,-43.66386 c 0,0 0.816475,7.24578 2.651651,16.61701 1.929753,14.95909 2.121319,30.40561 2.121319,30.40561 m -6.24264,-50.02782 c 0,0 1.346805,10.25098 3.181981,19.62221 1.929753,14.95909 2.298096,34.47147 2.298096,34.47147" id="path3900" style="fill:none;stroke:#2e3436;stroke-width:0.40000001;stroke-linecap:butt;stroke-linejoin:miter;stroke-miterlimit:4;stroke-opacity:1;stroke-dasharray:none"/>
      <path d="m 44.326808,111.95458 c 0,0 0.472305,3.97785 0.957589,13.25114 1.025536,19.59698 1.811348,25.61529 1.811348,25.61529 m -4.216076,-46.05363 c 0,0 0.610521,4.53071 1.510451,20.43834 1.108389,19.59247 2.778856,35.15215 2.778856,35.15215 M 41.535919,99.267383 c 0,0 0.798021,3.811957 1.979201,25.938337 1.046094,19.5959 3.341356,39.4334 3.341356,39.4334 M 40.419802,94.140859 c 0,0 0.599798,0.250983 2.155978,31.064861 0.989791,19.59882 4.048463,45.44381 4.048463,45.44381 M 39.044802,88.140859 c 0,0 1.099798,6.000983 2.655978,36.814861 0.989791,19.59882 4.798463,49.69381 4.798463,49.69381" id="path3961" style="fill:none;stroke:#2e3436;stroke-width:0.40000001;stroke-linecap:butt;stroke-linejoin:miter;stroke-miterlimit:4;stroke-opacity:1;stroke-dasharray:none"/>
      <g transform="matrix(0.95829657,-0.40801109,-0.40801109,-0.95829657,3.4496328,273.72028)" id="g3774" style="fill:#fce94f;fill-opacity:1">
        <path d="m 107.97758,269.5 a 5.4775782,2.9164438 0 1 1 -10.955158,0 5.4775782,2.9164438 0 1 1 10.955158,0 z" transform="matrix(0.7736649,0.43655724,-0.33438665,1.0443282,104.16428,-214.20943)" id="path3766" style="color:#000000;fill:#fce94f;fill-opacity:1;fill-rule:nonzero;stroke:#000000;stroke-width:1;stroke-opacity:1;marker:none;visibility:visible;display:inline;overflow:visible;enable-background:accumulate"/>
        <path d="m 89.772664,108.57167 c 0,0 0.378847,-2.29697 -0.756937,-6.20688" id="path3768" style="fill:#fce94f;fill-opacity:1;stroke:#000000;stroke-width:1px;stroke-linecap:butt;stroke-linejoin:miter;stroke-opacity:1"/>
        <path d="m 97.64823,114.32796 c 0,0 1.589353,-2.20062 5.34469,-2.23064" id="path3770" style="fill:none;stroke:#000000;stroke-width:0.76862556px;stroke-linecap:butt;stroke-linejoin:miter;stroke-opacity:1"/>
        <path d="m 96.069681,112.09142 a 2.6637211,1.0343869 0 1 1 -5.327442,0 2.6637211,1.0343869 0 1 1 5.327442,0 z" transform="matrix(0.85208123,0.52340958,-0.52340958,0.85208123,72.486219,-32.309148)" id="path3772" style="color:#000000;fill:#a40000;fill-opacity:1;stroke:#000000;stroke-width:1;stroke-linecap:butt;stroke-linejoin:round;stroke-miterlimit:4;stroke-opacity:1;stroke-dasharray:none;stroke-dashoffset:0;marker:none;visibility:visible;display:inline;overflow:visible;enable-background:accumulate"/>
      </g>
    </g>
    <g xmlns="http://www.w3.org/2000/svg" transform="matrix(-1.0614204,0,0,-1.0614204,1422.4656,-569.64935)" id="g5075">
      <g transform="matrix(2.4560211,0.02797092,-0.0218098,2.1777698,-191.65629,-316.44198)" id="g5077" style="fill:#fce94f;fill-opacity:1;stroke-width:0.43236765;stroke-miterlimit:4;stroke-dasharray:none">
        <path d="m 104.05949,269.5 a 1.5594888,4.9188237 0 1 1 -3.11898,0 1.5594888,4.9188237 0 1 1 3.11898,0 z" transform="matrix(0.7736649,0.43655724,-0.33438665,1.0443282,115.754,-57.393792)" id="path5079" style="color:#000000;fill:#fce94f;fill-opacity:1;fill-rule:nonzero;stroke:#000000;stroke-width:0.44268307;stroke-miterlimit:4;stroke-opacity:1;stroke-dasharray:none;marker:none;visibility:visible;display:inline;overflow:visible;enable-background:accumulate"/>
        <path d="m 103.40738,268.74146 a 0.69580537,3.4834313 0 1 1 -1.39161,0 0.69580537,3.4834313 0 1 1 1.39161,0 z" transform="matrix(0.50093417,0.14484058,-0.14484058,0.50093417,92.308461,119.86021)" id="path5081" style="color:#000000;fill:#a40000;fill-opacity:1;fill-rule:nonzero;stroke:#000000;stroke-width:0.82915848;stroke-linecap:butt;stroke-linejoin:round;stroke-miterlimit:4;stroke-opacity:1;stroke-dasharray:none;stroke-dashoffset:0;marker:none;visibility:visible;display:inline;overflow:visible;enable-background:accumulate"/>
      </g>
      <path d="m 36.451473,83.92318 c 1.721087,10.680628 3.22443,38.8195 5.353904,60.86349 0.3924,4.06207 0.805007,8.16971 1.233462,12.29934 0.850948,8.20179 1.764412,16.49033 2.706255,24.68088 0.470143,4.08852 -1.052641,8.15262 -0.572602,12.16933 0.881596,7.37669 3.77272,14.59353 4.64707,21.5082 0.987944,7.813 3.047566,15.685 3.709602,22.63014 C 55.892342,262.86566 55.125,280.25 55.125,280.25 c 0,0 2.052204,-14.96577 9.875,-19.25 l 3.224106,-32.72198 c 0.328979,-2.48558 3.471998,-5.83473 3.745419,-8.34052 0.273421,-2.50579 -2.573239,-4.29291 -1.998621,-9.8231 1.801849,-17.39403 3.602518,-36.02932 4.903115,-51.8222 0,0 0.883345,-7.92173 1.484931,-10.53719 0.601586,-2.61546 1.970377,-5.19049 2.086415,-6.70032 -0.352712,-0.97858 -1.622105,0.65114 -1.64452,-2.53405 -0.02242,-3.18519 2.478041,-8.51064 -0.832748,-8.67231 0.184162,-2.87707 0.364126,-5.7172 0.519767,-8.5585 0.155641,-2.8413 1.073322,-5.10131 1.198064,-7.84235 0.412192,-9.82099 -0.623324,-18.907352 -0.765966,-28.690087 -0.05004,-3.151816 0.586896,-4.533775 0.698053,-6.574873 C 77.729171,76.141422 76.992239,67.144553 76.302831,64.49241 75.613423,61.840266 74.437464,60.994246 74.437464,60.994246 72.521972,59.627743 68.076815,39.705085 61.710511,40.005889 l -1.36e-4,-3.09e-4 c -1.425376,0.141233 -2.92971,0.855806 -4.900111,0.910571 -6.305284,0.175246 -14.640198,7.362385 -19.218513,21.170457 -1.478343,4.458641 2.12912,13.079132 2.306867,24.488222 0,0 -2.739599,-5.692123 -3.447145,-2.65165 z" id="path5083" style="fill:#a40000;fill-opacity:1;stroke:#000000;stroke-width:0.87978262;stroke-linecap:butt;stroke-linejoin:miter;stroke-miterlimit:4;stroke-opacity:1;stroke-dasharray:none"/>
      <path d="m 58.502312,158.46291 c 1.260081,15.85345 2.212132,31.77989 2.488361,47.75264 0.07362,1.85454 0.13723,9.78788 0.146762,4.19737 0.13367,-15.31148 0.202158,-44.38301 0.202158,-44.38301 -0.174323,-11.29084 1.225647,-21.33527 1.204937,-32.62241 0.111548,-7.35985 0.227329,-14.69535 -0.159616,-22.05946 -0.07629,-13.089354 1.318488,-23.815748 1.046272,-36.906676 -1.190374,-6.026521 -0.08743,-20.998633 -5.286664,-21.331938 -5.621464,3.432355 -2.479428,8.730982 -2.930228,13.298118 0.119243,8.24717 -0.08,21.376887 -0.06543,25.698371 0.89846,2.961849 2.554105,44.377025 3.353448,66.356995 z" id="path5085" style="fill:#fce94f;fill-opacity:1;stroke:none"/>
      <g transform="matrix(-0.58607701,-0.19390236,0.31346991,-0.94747435,88.41649,206.41706)" id="g5087" style="fill:#fce94f;fill-opacity:1">
        <path d="m 107.97758,269.5 a 5.4775782,2.9164438 0 1 1 -10.955158,0 5.4775782,2.9164438 0 1 1 10.955158,0 z" transform="matrix(0.7736649,0.43655724,-0.33438665,1.0443282,104.16428,-214.20943)" id="path5089" style="color:#000000;fill:#fce94f;fill-opacity:1;fill-rule:nonzero;stroke:#000000;stroke-width:1;stroke-opacity:1;marker:none;visibility:visible;display:inline;overflow:visible;enable-background:accumulate"/>
        <path d="m 89.772664,108.57167 c 0,0 0.378847,-2.29697 -0.756937,-6.20688" id="path5091" style="fill:#fce94f;fill-opacity:1;stroke:#000000;stroke-width:1px;stroke-linecap:butt;stroke-linejoin:miter;stroke-opacity:1"/>
        <path d="m 97.64823,114.32796 c 0,0 1.589353,-2.20062 5.34469,-2.23064" id="path5093" style="fill:none;stroke:#000000;stroke-width:0.76862556px;stroke-linecap:butt;stroke-linejoin:miter;stroke-opacity:1"/>
        <path d="m 96.069681,112.09142 a 2.6637211,1.0343869 0 1 1 -5.327442,0 2.6637211,1.0343869 0 1 1 5.327442,0 z" transform="matrix(0.68424037,0.61042655,-0.76487397,0.77911309,115.22964,-32.257949)" id="path5095" style="color:#000000;fill:#a40000;fill-opacity:1;stroke:#000000;stroke-width:1;stroke-linecap:butt;stroke-linejoin:round;stroke-miterlimit:4;stroke-opacity:1;stroke-dasharray:none;stroke-dashoffset:0;marker:none;visibility:visible;display:inline;overflow:visible;enable-background:accumulate"/>
      </g>
      <path d="m 97.493416,143.39075 c -1.436465,-2.63352 1.567807,-3.19151 2.974094,-1.62224 1.4858,1.65801 0.83545,4.25168 -0.877597,5.46582 -2.148573,1.52282 -5.161552,0.74085 -6.562198,-1.40775 -1.618872,-2.48335 -0.714932,-5.86007 1.756287,-7.40309 2.751685,-1.71815 6.440318,-0.71112 8.104198,2.02465 1.81267,2.98042 0.7165,6.94326 -2.24683,8.71387 -3.182098,1.90133 -7.39093,0.72627 -9.257952,-2.43854 -1.984422,-3.36381 -0.738261,-7.79674 2.60848,-9.75218 2.90948,-1.69995 6.695312,-1.14902 9.049732,1.24378" transform="matrix(-0.22630241,0.01361178,0.14871861,1.3281869,49.280837,3.7656156)" id="path5097" style="fill:none;stroke:#2e3436;stroke-width:0.69669986;stroke-linecap:butt;stroke-linejoin:miter;stroke-miterlimit:4;stroke-opacity:1;stroke-dasharray:none"/>
      <path d="m 38.417101,65.429313 c -0.532973,-1.584663 1.523124,-7.86185 4.414245,-12.594859 4.097718,-6.708311 7.008542,-8.534435 11.948025,-10.554299 M 39.435435,63.184013 c 0.01093,-1.862947 2.021111,-6.778206 4.158401,-10.28769 3.587965,-5.891528 6.923402,-7.874522 10.264813,-9.128138 M 40.673613,61.96129 c -0.07078,-1.52619 1.795562,-5.71532 3.639358,-8.757618 3.033356,-5.005096 5.268246,-6.355632 8.548422,-7.823761 M 42.076187,59.861018 c 0.126313,-1.230235 1.743964,-4.573651 2.985794,-6.641513 2.41371,-4.019244 4.881285,-5.537382 6.693946,-6.052984 m -7.862993,10.092944 c 0.216605,-0.722764 1.495344,-3.074909 2.050477,-4.021343 1.683786,-2.870649 3.272498,-3.843773 4.53368,-4.004802 m -4.196419,5.496503 c 0.63955,-1.332197 1.883776,-2.603646 2.544809,-2.827238" id="path5099" style="fill:none;stroke:#2e3436;stroke-width:0.43794066;stroke-linecap:butt;stroke-linejoin:miter;stroke-miterlimit:4;stroke-opacity:1"/>
      <g transform="translate(0.61113591,0.29419417)" id="g5101">
        <path d="m 107.97758,269.5 a 5.4775782,2.9164438 0 1 1 -10.955158,0 5.4775782,2.9164438 0 1 1 10.955158,0 z" transform="matrix(-0.099526,-0.63973553,0.52030263,-0.75230154,-60.305486,487.96915)" id="path5103" style="color:#000000;fill:#fce94f;fill-opacity:1;fill-rule:nonzero;stroke:#000000;stroke-width:1.56607974;stroke-miterlimit:4;stroke-opacity:1;stroke-dasharray:none;marker:none;visibility:visible;display:inline;overflow:visible;enable-background:accumulate"/>
        <path d="m 96.069681,112.09142 a 2.6637211,1.0343869 0 1 1 -5.327442,0 2.6637211,1.0343869 0 1 1 5.327442,0 z" transform="matrix(-0.00359655,-0.56026224,0.62630431,-0.28361578,-0.17319024,303.83543)" id="path5105" style="color:#000000;fill:#a40000;fill-opacity:1;stroke:#000000;stroke-width:1.27403986;stroke-linecap:butt;stroke-linejoin:round;stroke-miterlimit:4;stroke-opacity:1;stroke-dasharray:none;stroke-dashoffset:0;marker:none;visibility:visible;display:inline;overflow:visible;enable-background:accumulate"/>
      </g>
      <path d="m 55.143922,222.12636 c 0,0 0.06517,0.70505 1.90035,10.07628 1.929753,14.95909 1.811959,23.55551 1.811959,23.55551 m -5.005203,-37.16732 c 0,0 0.462922,4.24058 2.298098,13.61181 1.929753,14.95909 1.944542,27.04685 1.944542,27.04685 m -5.535533,-43.66386 c 0,0 0.816475,7.24578 2.651651,16.61701 1.929753,14.95909 2.121319,30.40561 2.121319,30.40561 m -6.24264,-50.02782 c 0,0 1.346805,10.25098 3.181981,19.62221 1.929753,14.95909 2.298096,34.47147 2.298096,34.47147" id="path5107" style="fill:none;stroke:#2e3436;stroke-width:0.40000001;stroke-linecap:butt;stroke-linejoin:miter;stroke-miterlimit:4;stroke-opacity:1;stroke-dasharray:none"/>
      <path d="m 44.326808,111.95458 c 0,0 0.472305,3.97785 0.957589,13.25114 1.025536,19.59698 1.811348,25.61529 1.811348,25.61529 m -4.216076,-46.05363 c 0,0 0.610521,4.53071 1.510451,20.43834 1.108389,19.59247 2.778856,35.15215 2.778856,35.15215 M 41.535919,99.267383 c 0,0 0.798021,3.811957 1.979201,25.938337 1.046094,19.5959 3.341356,39.4334 3.341356,39.4334 M 40.419802,94.140859 c 0,0 0.599798,0.250983 2.155978,31.064861 0.989791,19.59882 4.048463,45.44381 4.048463,45.44381 M 39.044802,88.140859 c 0,0 1.099798,6.000983 2.655978,36.814861 0.989791,19.59882 4.798463,49.69381 4.798463,49.69381" id="path5109" style="fill:none;stroke:#2e3436;stroke-width:0.40000001;stroke-linecap:butt;stroke-linejoin:miter;stroke-miterlimit:4;stroke-opacity:1;stroke-dasharray:none"/>
      <g transform="matrix(0.95829657,-0.40801109,-0.40801109,-0.95829657,3.4496328,273.72028)" id="g5111" style="fill:#fce94f;fill-opacity:1">
        <path d="m 107.97758,269.5 a 5.4775782,2.9164438 0 1 1 -10.955158,0 5.4775782,2.9164438 0 1 1 10.955158,0 z" transform="matrix(0.7736649,0.43655724,-0.33438665,1.0443282,104.16428,-214.20943)" id="path5113" style="color:#000000;fill:#fce94f;fill-opacity:1;fill-rule:nonzero;stroke:#000000;stroke-width:1;stroke-opacity:1;marker:none;visibility:visible;display:inline;overflow:visible;enable-background:accumulate"/>
        <path d="m 89.772664,108.57167 c 0,0 0.378847,-2.29697 -0.756937,-6.20688" id="path5115" style="fill:#fce94f;fill-opacity:1;stroke:#000000;stroke-width:1px;stroke-linecap:butt;stroke-linejoin:miter;stroke-opacity:1"/>
        <path d="m 97.64823,114.32796 c 0,0 1.589353,-2.20062 5.34469,-2.23064" id="path5117" style="fill:none;stroke:#000000;stroke-width:0.76862556px;stroke-linecap:butt;stroke-linejoin:miter;stroke-opacity:1"/>
        <path d="m 96.069681,112.09142 a 2.6637211,1.0343869 0 1 1 -5.327442,0 2.6637211,1.0343869 0 1 1 5.327442,0 z" transform="matrix(0.85208123,0.52340958,-0.52340958,0.85208123,72.486219,-32.309148)" id="path5119" style="color:#000000;fill:#a40000;fill-opacity:1;stroke:#000000;stroke-width:1;stroke-linecap:butt;stroke-linejoin:round;stroke-miterlimit:4;stroke-opacity:1;stroke-dasharray:none;stroke-dashoffset:0;marker:none;visibility:visible;display:inline;overflow:visible;enable-background:accumulate"/>
      </g>
    </g>
    <linearGradient xmlns="http://www.w3.org/2000/svg" id="linearGradient3293">
      <stop id="stop3295" style="stop-color:#ffffff;stop-opacity:1" offset="0"/>
      <stop id="stop3297" style="stop-color:#cccccc;stop-opacity:1" offset="1"/>
    </linearGradient>
    <linearGradient xmlns="http://www.w3.org/2000/svg" xmlns:xlink="http://www.w3.org/1999/xlink" x1="135.06662" y1="-723.17877" x2="-384.7966" y2="-723.17877" id="linearGradient4973" xlink:href="#linearGradient3293" gradientUnits="userSpaceOnUse"/>
    <g xmlns="http://www.w3.org/2000/svg" transform="matrix(1.2241316,0,0,1.2241316,-152.50379,110.11585)" id="text7875" style="font-size:19.33501625px;font-style:normal;font-variant:normal;font-weight:normal;font-stretch:normal;line-height:125%;font-family:FreeSerif;-inkscape-font-specification:FreeSerif">
      <path d="m 1047.8848,-576.36062 c 0.064,-0.29646 0.1289,-0.55426 0.1933,-0.7734 0.064,-0.21912 0.1998,-0.53493 0.4061,-0.94742 0.2191,-0.42536 0.4576,-0.77339 0.7154,-1.04409 0.2707,-0.28357 0.638,-0.53492 1.1021,-0.75406 0.4769,-0.21912 1.0118,-0.32869 1.6048,-0.3287 1.0054,1e-5 1.8497,0.32871 2.5329,0.98609 0.696,0.6574 1.044,1.46947 1.044,2.43621 0,1.45658 -0.8249,3.04849 -2.4748,4.77575 l -3.2483,3.40296 4.6211,0 c 0.4382,0 0.7605,-0.0709 0.9667,-0.21268 0.2191,-0.15468 0.5091,-0.50916 0.8701,-1.06343 l 0.2513,0.0967 -1.0634,2.64889 -7.5406,0 0,-0.23202 3.4416,-3.65432 c 1.6757,-1.77881 2.5135,-3.45451 2.5135,-5.0271 0,-0.81206 -0.2513,-1.46945 -0.754,-1.97217 -0.5027,-0.5027 -1.1601,-0.75406 -1.9722,-0.75407 -0.6703,10e-6 -1.2117,0.18692 -1.6241,0.56072 -0.3996,0.36093 -0.7928,1.01187 -1.1795,1.95283 l -0.406,-0.0967" id="path7936" style="font-size:19.33501625px;font-style:normal;font-variant:normal;font-weight:normal;font-stretch:normal;line-height:125%;font-family:FreeSerif;-inkscape-font-specification:FreeSerif"/>
    </g>
  </defs>
  <g xmlns:xlink="http://www.w3.org/1999/xlink" transform="translate(-206.5 -413.86464)">
    <g xmlns="http://www.w3.org/2000/svg" xmlns:xlink="http://www.w3.org/1999/xlink" transform="translate(0,957.0001)" id="2_club">
      <use transform="translate(208,330.00236)" id="use7490" x="0" y="0" width="2496" height="1595" xlink:href="#card_body"/>
      <use transform="translate(-562.5,330.00236)" id="use7646" x="0" y="0" width="2496" height="1595" xlink:href="#frame_bastos"/>
      <use transform="translate(1.000005,-1.99796)" id="use3172" x="0" y="0" width="2485" height="1592" xlink:href="#g3158"/>
      <use transform="translate(-1036.6389,359.03136)" id="use5129" x="0" y="0" width="2485" height="1592" xlink:href="#g3965"/>
      <use transform="translate(-1002.3389,359.03136)" id="use5131" x="0" y="0" width="2485" height="1592" xlink:href="#g5075"/>
    </g>
  </g>
</svg>
