<?xml version="1.0" encoding="UTF-8"?>
<svg xmlns="http://www.w3.org/2000/svg" xmlns:xlink="http://www.w3.org/1999/xlink" xmlns:xlink="http://www.w3.org/1999/xlink" width="211" height="322" viewBox="0 0 211 322">
  <defs xmlns:xlink="http://www.w3.org/1999/xlink">
    <rect xmlns="http://www.w3.org/2000/svg" width="207" height="318" rx="15" ry="15" x="0.5" y="-871.13782" id="card_body" style="fill:url(#linearGradient4973);fill-opacity:1;stroke:#000000;stroke-width:1;stroke-linecap:square;stroke-linejoin:miter;stroke-miterlimit:4;stroke-opacity:1;stroke-dasharray:none"/>
    <path xmlns="http://www.w3.org/2000/svg" d="m 836.3571,-856.63781 25.4286,0 m 25.4286,0 25.4285,0 m 25.4286,0 25.4286,0 0,288.99998 -25.4286,0 m -25.4286,0 -25.4285,0 m -25.4286,0 -25.4286,0 m -25.4286,0 -25.4285,0 0,-288.99998 25.4285,0" id="frame_bastos" style="fill:none;stroke:#000000;stroke-opacity:1"/>
    <g xmlns="http://www.w3.org/2000/svg" xmlns:xlink="http://www.w3.org/1999/xlink" id="g3234">
      <use transform="translate(-12.230734,79.99828)" id="use3226" x="0" y="0" width="2485" height="1592" xlink:href="#text7885"/>
      <use transform="matrix(-1,0,0,-1,2704.2305,-840.27328)" id="use3228" x="0" y="0" width="2485" height="1592" xlink:href="#text7885"/>
    </g>
    <g xmlns="http://www.w3.org/2000/svg" xmlns:xlink="http://www.w3.org/1999/xlink" id="g3884">
      <use transform="matrix(-1,0,0,-1,2504.5548,-183.3429)" id="use3872" x="0" y="0" width="2485" height="1592" xlink:href="#g4774"/>
      <use transform="translate(0.41026307,1180.0576)" id="use3874" x="0" y="0" width="2485" height="1592" xlink:href="#g4744"/>
      <use transform="translate(122.07002,0)" id="use3876" x="0" y="0" width="2485" height="1592" xlink:href="#use3872"/>
      <use transform="translate(-61.034992,150.50499)" id="use3878" x="0" y="0" width="2485" height="1592" xlink:href="#use3874"/>
      <use transform="translate(61.035028,150.50499)" id="use3880" x="0" y="0" width="2485" height="1592" xlink:href="#use3874"/>
      <use transform="translate(61.034992,150.50499)" id="use3882" x="0" y="0" width="2485" height="1592" xlink:href="#use3872"/>
    </g>
    <g xmlns="http://www.w3.org/2000/svg" transform="matrix(-0.79877067,0,0,-0.79877067,1183.3209,-568.35842)" id="g4744">
      <g id="g4780">
        <g id="g4712">
          <g transform="matrix(1.5272829,-0.39049798,0.38323738,0.98066282,-205.76081,-17.398209)" id="g4222" style="fill:#fce94f;fill-opacity:1;stroke-width:0.56217629;stroke-miterlimit:4;stroke-dasharray:none">
            <path d="m 104.97019,269.5 a 2.4701867,4.4640307 0 1 1 -4.94038,0 2.4701867,4.4640307 0 1 1 4.94038,0 z" transform="matrix(-0.76573595,0.45632906,0.35285583,1.0355014,88.376329,-57.120462)" id="path4224" style="color:#000000;fill:#fce94f;fill-opacity:1;fill-rule:nonzero;stroke:#000000;stroke-width:1.04834104;stroke-miterlimit:4;stroke-opacity:1;stroke-dasharray:none;marker:none;visibility:visible;display:inline;overflow:visible;enable-background:accumulate"/>
            <path d="m 104.04361,268.74146 a 1.3320342,3.4834313 0 1 1 -2.66407,0 1.3320342,3.4834313 0 1 1 2.66407,0 z" transform="matrix(-0.4982478,0.15767391,0.15370326,0.49709972,114.71992,118.92619)" id="path4226" style="color:#000000;fill:#a40000;fill-opacity:1;fill-rule:nonzero;stroke:#000000;stroke-width:1.29294097;stroke-linecap:butt;stroke-linejoin:round;stroke-miterlimit:4;stroke-opacity:1;stroke-dasharray:none;stroke-dashoffset:0;marker:none;visibility:visible;display:inline;overflow:visible;enable-background:accumulate"/>
          </g>
          <path d="m 34.154208,100.73588 c 4.032588,40.32411 7.917596,27.98784 14.189162,66.12152 1.048624,6.88871 1.68406,17.06308 2.137105,20.41886 1.70267,12.34241 2.326103,14.18054 2.326103,14.18054 0,0 8.868914,-0.9296 9.442622,7.13107 l 1.629129,-30.41509 c 0.349185,-2.19154 3.685249,-5.14448 3.975464,-7.35384 0.290214,-2.20935 -2.731289,-3.78506 -2.121377,-8.66103 -0.293124,-21.52306 6.487719,-9.31885 8.994965,-29.32412 -0.374375,-0.86282 -1.721735,0.57411 -1.745527,-2.23428 -0.0238,-2.80837 2.630244,-7.50382 -0.883895,-7.64637 0.195473,-2.53671 4.38649,-5.04085 4.551691,-7.54603 0.1652,-2.50517 1.139246,-4.49782 1.271649,-6.9146 0.437509,-8.659166 -0.661608,1.60433 -0.813011,-7.0211 -0.05311,-2.77896 0.622943,-3.997432 0.740927,-5.797068 C 77.967198,93.874706 77.185004,92.5876 76.453252,90.249206 75.7215,87.910811 74.473314,87.164875 74.473314,87.164875 72.440171,85.96003 67.721991,73.378298 60.964666,73.643518 l -1.44e-4,-2.73e-4 c -1.512924,0.124526 -3.109654,0.754564 -5.201078,0.802851 -6.692557,0.154514 -15.539405,1.507338 -20.398922,13.681915 -2.250208,6.173207 -2.250208,6.173207 -1.210314,12.607869 z" id="path4228" style="fill:#4e9a06;stroke:#000000;stroke-width:1.19928348;stroke-linecap:butt;stroke-linejoin:miter;stroke-miterlimit:4;stroke-opacity:1;stroke-dasharray:none"/>
          <path d="m 56.760786,137.1172 c 1.337476,7.69942 2.348002,15.43429 2.641197,23.19165 0.07814,0.90069 0.145659,4.75361 0.155776,2.03851 0.14188,-7.4362 0.214575,-21.55516 0.214575,-21.55516 -0.18503,-5.48353 1.300927,-10.36174 1.278945,-15.84346 0.118399,-3.57441 0.241291,-7.13698 -0.16942,-10.71345 -0.08098,-6.35701 1.39947,-11.56641 1.110535,-17.924182 -1.263488,-2.926854 -0.0928,-10.198244 -5.611374,-10.360118 -5.966736,1.666966 -2.631715,4.24031 -3.110203,6.458395 0.126567,4.005339 -0.08491,10.381945 -0.06945,12.480735 0.953644,1.43845 2.710979,21.55224 3.559418,32.22708 z" id="path4230" style="fill:#fce94f;fill-opacity:1;stroke:none"/>
          <g transform="matrix(-0.62870018,-0.5059798,0.65899961,-0.38669691,60.569326,197.90793)" id="g4232" style="fill:#fce94f;fill-opacity:1;stroke-width:1.20031607;stroke-miterlimit:4;stroke-dasharray:none">
            <path d="m 107.97758,269.5 a 5.4775782,2.9164438 0 1 1 -10.955158,0 5.4775782,2.9164438 0 1 1 10.955158,0 z" transform="matrix(0.7736649,0.43655724,-0.33438665,1.0443282,104.16428,-214.20943)" id="path4234" style="color:#000000;fill:#fce94f;fill-opacity:1;fill-rule:nonzero;stroke:#000000;stroke-width:1.61711335;stroke-miterlimit:4;stroke-opacity:1;stroke-dasharray:none;marker:none;visibility:visible;display:inline;overflow:visible;enable-background:accumulate"/>
            <path d="m 89.772664,108.57167 c 0,0 0.378847,-2.29697 -0.756937,-6.20688" id="path4236" style="fill:#fce94f;fill-opacity:1;stroke:#000000;stroke-width:1.5794313;stroke-linecap:butt;stroke-linejoin:miter;stroke-miterlimit:4;stroke-opacity:1;stroke-dasharray:none"/>
            <path d="m 97.64823,114.32796 c 0,0 1.589353,-2.20062 5.34469,-2.23064" id="path4238" style="fill:none;stroke:#000000;stroke-width:1.5794313;stroke-linecap:butt;stroke-linejoin:miter;stroke-miterlimit:4;stroke-opacity:1;stroke-dasharray:none"/>
            <path d="m 96.069681,112.09142 a 2.6637211,1.0343869 0 1 1 -5.327442,0 2.6637211,1.0343869 0 1 1 5.327442,0 z" transform="matrix(0.68424037,0.61042655,-0.76487397,0.77911309,115.22964,-32.257949)" id="path4240" style="color:#000000;fill:#a40000;fill-opacity:1;stroke:#000000;stroke-width:1.5794313;stroke-linecap:butt;stroke-linejoin:round;stroke-miterlimit:4;stroke-opacity:1;stroke-dasharray:none;stroke-dashoffset:0;marker:none;visibility:visible;display:inline;overflow:visible;enable-background:accumulate"/>
          </g>
          <path d="m 97.493416,143.39075 c -1.436465,-2.63352 1.567807,-3.19151 2.974094,-1.62224 1.4858,1.65801 0.83545,4.25168 -0.877597,5.46582 -2.148573,1.52282 -5.161552,0.74085 -6.562198,-1.40775 -1.618872,-2.48335 -0.714932,-5.86007 1.756287,-7.40309 2.751685,-1.71815 6.440318,-0.71112 8.104198,2.02465 1.81267,2.98042 0.7165,6.94326 -2.24683,8.71387 -3.182098,1.90133 -7.39093,0.72627 -9.257952,-2.43854 -1.984422,-3.36381 -0.738261,-7.79674 2.60848,-9.75218 2.90948,-1.69995 6.695312,-1.14902 9.049732,1.24378" transform="matrix(-0.23929886,0.02402267,0.21633521,1.1616814,40.518652,-15.438119)" id="path4242" style="fill:none;stroke:#2e3436;stroke-width:0.90145886;stroke-linecap:butt;stroke-linejoin:miter;stroke-miterlimit:4;stroke-opacity:1;stroke-dasharray:none"/>
          <path d="m 36.062976,90.306518 c -0.435581,-0.965486 1.244799,-4.78998 3.607616,-7.673657 3.348928,-4.087164 5.727849,-5.199765 9.764724,-6.430406 M 36.895227,88.938526 c 0.0089,-1.135036 1.651786,-4.12975 3.398523,-6.26797 2.932324,-3.589524 5.658266,-4.797701 8.38909,-5.56149 M 37.907148,88.193559 c -0.05785,-0.92986 1.467454,-3.482166 2.974327,-5.335744 2.479061,-3.049449 4.305562,-3.872289 6.986341,-4.766775 m -8.814391,8.822889 c 0.103232,-0.749544 1.425284,-2.786584 2.440191,-4.046468 1.972645,-2.4488 3.989312,-3.373755 5.470738,-3.687894 m -6.426162,6.149316 c 0.177025,-0.440357 1.222095,-1.873446 1.675786,-2.450079 1.376103,-1.748997 2.674505,-2.341891 3.705227,-2.440001 m -3.429594,3.348848 c 0.522684,-0.811666 1.539547,-1.58632 2.079788,-1.722548" id="path4244" style="fill:none;stroke:#2e3436;stroke-width:0.47971338;stroke-linecap:butt;stroke-linejoin:miter;stroke-miterlimit:4;stroke-opacity:1;stroke-dasharray:none"/>
          <g transform="matrix(0.87242469,0,0,0.72470514,5.6944713,12.235289)" id="g4246">
            <path d="m 107.97758,269.5 a 5.4775782,2.9164438 0 1 1 -10.955158,0 5.4775782,2.9164438 0 1 1 10.955158,0 z" transform="matrix(-0.099526,-0.63973553,0.52030263,-0.75230154,-60.305486,487.96915)" id="path4248" style="color:#000000;fill:#fce94f;fill-opacity:1;fill-rule:nonzero;stroke:#000000;stroke-width:2.06072021;stroke-miterlimit:4;stroke-opacity:1;stroke-dasharray:none;marker:none;visibility:visible;display:inline;overflow:visible;enable-background:accumulate"/>
            <path d="m 96.069681,112.09142 a 2.6637211,1.0343869 0 1 1 -5.327442,0 2.6637211,1.0343869 0 1 1 5.327442,0 z" transform="matrix(-0.00359655,-0.56026224,0.62630431,-0.28361578,-0.17319024,303.83543)" id="path4250" style="color:#000000;fill:#a40000;fill-opacity:1;stroke:#000000;stroke-width:1.6764406;stroke-linecap:butt;stroke-linejoin:round;stroke-miterlimit:4;stroke-opacity:1;stroke-dasharray:none;stroke-dashoffset:0;marker:none;visibility:visible;display:inline;overflow:visible;enable-background:accumulate"/>
          </g>
          <path d="m 52.589694,176.79702 c 0,0 -0.833658,2.18631 0.106177,6.66851 0.927956,7.14065 1.621611,9.37651 1.621611,9.37651 M 51.89136,175.09745 c 0,0 -0.647726,3.87315 0.292098,8.35535 0.927957,7.14065 1.656265,11.03857 1.656265,11.03857 m -2.652961,-20.84131 c 0,0 -0.480837,5.30718 0.458986,9.78938 0.927956,7.14065 1.717783,12.6382 1.717783,12.6382 m -2.982562,-23.87748 c 0,0 -0.212756,6.74373 0.727068,11.22593 0.927956,7.14064 1.770949,14.57407 1.770949,14.57407" id="path4252" style="fill:none;stroke:#2e3436;stroke-width:0.47971338;stroke-linecap:butt;stroke-linejoin:miter;stroke-miterlimit:4;stroke-opacity:1;stroke-dasharray:none"/>
          <path d="m 40.118061,112.01546 c 0,0 -1.544033,1.81748 -0.8393,6.23335 1.489296,9.33194 4.21611,12.24655 4.21611,12.24655 m -4.539553,-21.86158 c 0,0 -1.439107,2.07658 -0.191354,9.6491 1.536783,9.32663 5.210529,16.7701 5.210529,16.7701 m -6.045005,-28.99803 c 0,0 -1.364143,1.72575 0.330776,12.26127 1.501079,9.33066 5.730723,18.7959 5.730723,18.7959 m -6.93916,-33.46606 c 0,0 -1.641597,0.0305 0.667699,14.70596 1.468803,9.33418 6.413479,21.64304 6.413479,21.64304 m -8.147934,-39.16574 c 0,0 -1.090009,2.761 1.219286,17.43649 1.468803,9.33417 7.040175,23.64677 7.040175,23.64677" id="path4254" style="fill:none;stroke:#2e3436;stroke-width:0.47971338;stroke-linecap:butt;stroke-linejoin:miter;stroke-miterlimit:4;stroke-opacity:1;stroke-dasharray:none"/>
          <g transform="matrix(-0.47125198,-0.7452841,1.0000388,-0.57274394,4.9422949,271.71765)" id="g4256" style="fill:#fce94f;fill-opacity:1;stroke-width:0.90455854;stroke-miterlimit:4;stroke-dasharray:none">
            <path d="m 107.97758,269.5 a 5.4775782,2.9164438 0 1 1 -10.955158,0 5.4775782,2.9164438 0 1 1 10.955158,0 z" transform="matrix(0.7736649,0.43655724,-0.33438665,1.0443282,104.16428,-214.20943)" id="path4258" style="color:#000000;fill:#fce94f;fill-opacity:1;fill-rule:nonzero;stroke:#000000;stroke-width:1.21865702;stroke-miterlimit:4;stroke-opacity:1;stroke-dasharray:none;marker:none;visibility:visible;display:inline;overflow:visible;enable-background:accumulate"/>
            <path d="m 89.772664,108.57167 c 0,0 0.378847,-2.29697 -0.756937,-6.20688" id="path4260" style="fill:#fce94f;fill-opacity:1;stroke:#000000;stroke-width:1.19025993;stroke-linecap:butt;stroke-linejoin:miter;stroke-miterlimit:4;stroke-opacity:1;stroke-dasharray:none"/>
            <path d="m 97.64823,114.32796 c 0,0 1.589353,-2.20062 5.34469,-2.23064" id="path4262" style="fill:none;stroke:#000000;stroke-width:1.19025993;stroke-linecap:butt;stroke-linejoin:miter;stroke-miterlimit:4;stroke-opacity:1;stroke-dasharray:none"/>
            <path d="m 96.069681,112.09142 a 2.6637211,1.0343869 0 1 1 -5.327442,0 2.6637211,1.0343869 0 1 1 5.327442,0 z" transform="matrix(0.85208123,0.52340958,-0.52340958,0.85208123,72.486219,-32.309148)" id="path4264" style="color:#000000;fill:#a40000;fill-opacity:1;stroke:#000000;stroke-width:1.19025993;stroke-linecap:butt;stroke-linejoin:round;stroke-miterlimit:4;stroke-opacity:1;stroke-dasharray:none;stroke-dashoffset:0;marker:none;visibility:visible;display:inline;overflow:visible;enable-background:accumulate"/>
          </g>
        </g>
      </g>
    </g>
    <g xmlns="http://www.w3.org/2000/svg" transform="matrix(0,-0.79877067,0.79877067,0,1279.6119,-949.98607)" id="g4770">
      <g transform="translate(-197.87113,147.80734)" id="use4740" style="fill:#c4a000">
        <g transform="matrix(1.5272829,-0.39049798,0.38323738,0.98066282,-205.76081,-17.398209)" id="g5031" style="fill:#fce94f;fill-opacity:1;stroke-width:0.56217629;stroke-miterlimit:4;stroke-dasharray:none">
          <path d="m 104.97019,269.5 a 2.4701867,4.4640307 0 1 1 -4.94038,0 2.4701867,4.4640307 0 1 1 4.94038,0 z" transform="matrix(-0.76573595,0.45632906,0.35285583,1.0355014,88.376329,-57.120462)" id="path5033" style="color:#000000;fill:#fce94f;fill-opacity:1;fill-rule:nonzero;stroke:#000000;stroke-width:1.04834104;stroke-miterlimit:4;stroke-opacity:1;stroke-dasharray:none;marker:none;visibility:visible;display:inline;overflow:visible;enable-background:accumulate"/>
          <path d="m 104.04361,268.74146 a 1.3320342,3.4834313 0 1 1 -2.66407,0 1.3320342,3.4834313 0 1 1 2.66407,0 z" transform="matrix(-0.4982478,0.15767391,0.15370326,0.49709972,114.71992,118.92619)" id="path5035" style="color:#000000;fill:#a40000;fill-opacity:1;fill-rule:nonzero;stroke:#000000;stroke-width:1.29294097;stroke-linecap:butt;stroke-linejoin:round;stroke-miterlimit:4;stroke-opacity:1;stroke-dasharray:none;stroke-dashoffset:0;marker:none;visibility:visible;display:inline;overflow:visible;enable-background:accumulate"/>
        </g>
        <path d="m 34.154208,100.73588 c 4.032588,40.32411 7.917596,27.98784 14.189162,66.12152 1.048624,6.88871 1.68406,17.06308 2.137105,20.41886 1.70267,12.34241 2.326103,14.18054 2.326103,14.18054 0,0 8.868914,-0.9296 9.442622,7.13107 l 1.629129,-30.41509 c 0.349185,-2.19154 3.685249,-5.14448 3.975464,-7.35384 0.290214,-2.20935 -2.731289,-3.78506 -2.121377,-8.66103 -0.293124,-21.52306 6.487719,-9.31885 8.994965,-29.32412 -0.374375,-0.86282 -1.721735,0.57411 -1.745527,-2.23428 -0.0238,-2.80837 2.630244,-7.50382 -0.883895,-7.64637 0.195473,-2.53671 4.38649,-5.04085 4.551691,-7.54603 0.1652,-2.50517 1.139246,-4.49782 1.271649,-6.9146 0.437509,-8.659166 -0.661608,1.60433 -0.813011,-7.0211 -0.05311,-2.77896 0.622943,-3.997432 0.740927,-5.797068 C 77.967198,93.874706 77.185004,92.5876 76.453252,90.249206 75.7215,87.910811 74.473314,87.164875 74.473314,87.164875 72.440171,85.96003 67.721991,73.378298 60.964666,73.643518 l -1.44e-4,-2.73e-4 c -1.512924,0.124526 -3.109654,0.754564 -5.201078,0.802851 -6.692557,0.154514 -15.539405,1.507338 -20.398922,13.681915 -2.250208,6.173207 -2.250208,6.173207 -1.210314,12.607869 z" id="path5037" style="fill:#c4a000;stroke:#000000;stroke-width:1.19928348;stroke-linecap:butt;stroke-linejoin:miter;stroke-miterlimit:4;stroke-opacity:1;stroke-dasharray:none"/>
        <path d="m 56.760786,137.1172 c 1.337476,7.69942 2.348002,15.43429 2.641197,23.19165 0.07814,0.90069 0.145659,4.75361 0.155776,2.03851 0.14188,-7.4362 0.214575,-21.55516 0.214575,-21.55516 -0.18503,-5.48353 1.300927,-10.36174 1.278945,-15.84346 0.118399,-3.57441 0.241291,-7.13698 -0.16942,-10.71345 -0.08098,-6.35701 1.39947,-11.56641 1.110535,-17.924182 -1.263488,-2.926854 -0.0928,-10.198244 -5.611374,-10.360118 -5.966736,1.666966 -2.631715,4.24031 -3.110203,6.458395 0.126567,4.005339 -0.08491,10.381945 -0.06945,12.480735 0.953644,1.43845 2.710979,21.55224 3.559418,32.22708 z" id="path5039" style="fill:#fce94f;fill-opacity:1;stroke:none"/>
        <g transform="matrix(-0.62870018,-0.5059798,0.65899961,-0.38669691,60.569326,197.90793)" id="g5041" style="fill:#fce94f;fill-opacity:1;stroke-width:1.20031607;stroke-miterlimit:4;stroke-dasharray:none">
          <path d="m 107.97758,269.5 a 5.4775782,2.9164438 0 1 1 -10.955158,0 5.4775782,2.9164438 0 1 1 10.955158,0 z" transform="matrix(0.7736649,0.43655724,-0.33438665,1.0443282,104.16428,-214.20943)" id="path5043" style="color:#000000;fill:#fce94f;fill-opacity:1;fill-rule:nonzero;stroke:#000000;stroke-width:1.61711335;stroke-miterlimit:4;stroke-opacity:1;stroke-dasharray:none;marker:none;visibility:visible;display:inline;overflow:visible;enable-background:accumulate"/>
          <path d="m 89.772664,108.57167 c 0,0 0.378847,-2.29697 -0.756937,-6.20688" id="path5045" style="fill:#fce94f;fill-opacity:1;stroke:#000000;stroke-width:1.5794313;stroke-linecap:butt;stroke-linejoin:miter;stroke-miterlimit:4;stroke-opacity:1;stroke-dasharray:none"/>
          <path d="m 97.64823,114.32796 c 0,0 1.589353,-2.20062 5.34469,-2.23064" id="path5047" style="fill:none;stroke:#000000;stroke-width:1.5794313;stroke-linecap:butt;stroke-linejoin:miter;stroke-miterlimit:4;stroke-opacity:1;stroke-dasharray:none"/>
          <path d="m 96.069681,112.09142 a 2.6637211,1.0343869 0 1 1 -5.327442,0 2.6637211,1.0343869 0 1 1 5.327442,0 z" transform="matrix(0.68424037,0.61042655,-0.76487397,0.77911309,115.22964,-32.257949)" id="path5049" style="color:#000000;fill:#a40000;fill-opacity:1;stroke:#000000;stroke-width:1.5794313;stroke-linecap:butt;stroke-linejoin:round;stroke-miterlimit:4;stroke-opacity:1;stroke-dasharray:none;stroke-dashoffset:0;marker:none;visibility:visible;display:inline;overflow:visible;enable-background:accumulate"/>
        </g>
        <path d="m 97.493416,143.39075 c -1.436465,-2.63352 1.567807,-3.19151 2.974094,-1.62224 1.4858,1.65801 0.83545,4.25168 -0.877597,5.46582 -2.148573,1.52282 -5.161552,0.74085 -6.562198,-1.40775 -1.618872,-2.48335 -0.714932,-5.86007 1.756287,-7.40309 2.751685,-1.71815 6.440318,-0.71112 8.104198,2.02465 1.81267,2.98042 0.7165,6.94326 -2.24683,8.71387 -3.182098,1.90133 -7.39093,0.72627 -9.257952,-2.43854 -1.984422,-3.36381 -0.738261,-7.79674 2.60848,-9.75218 2.90948,-1.69995 6.695312,-1.14902 9.049732,1.24378" transform="matrix(-0.23929886,0.02402267,0.21633521,1.1616814,40.518652,-15.438119)" id="path5051" style="fill:none;stroke:#2e3436;stroke-width:0.90145886;stroke-linecap:butt;stroke-linejoin:miter;stroke-miterlimit:4;stroke-opacity:1;stroke-dasharray:none"/>
        <path d="m 36.062976,90.306518 c -0.435581,-0.965486 1.244799,-4.78998 3.607616,-7.673657 3.348928,-4.087164 5.727849,-5.199765 9.764724,-6.430406 M 36.895227,88.938526 c 0.0089,-1.135036 1.651786,-4.12975 3.398523,-6.26797 2.932324,-3.589524 5.658266,-4.797701 8.38909,-5.56149 M 37.907148,88.193559 c -0.05785,-0.92986 1.467454,-3.482166 2.974327,-5.335744 2.479061,-3.049449 4.305562,-3.872289 6.986341,-4.766775 m -8.814391,8.822889 c 0.103232,-0.749544 1.425284,-2.786584 2.440191,-4.046468 1.972645,-2.4488 3.989312,-3.373755 5.470738,-3.687894 m -6.426162,6.149316 c 0.177025,-0.440357 1.222095,-1.873446 1.675786,-2.450079 1.376103,-1.748997 2.674505,-2.341891 3.705227,-2.440001 m -3.429594,3.348848 c 0.522684,-0.811666 1.539547,-1.58632 2.079788,-1.722548" id="path5053" style="fill:none;stroke:#2e3436;stroke-width:0.47971338;stroke-linecap:butt;stroke-linejoin:miter;stroke-miterlimit:4;stroke-opacity:1;stroke-dasharray:none"/>
        <g transform="matrix(0.87242469,0,0,0.72470514,5.6944713,12.235289)" id="g5055">
          <path d="m 107.97758,269.5 a 5.4775782,2.9164438 0 1 1 -10.955158,0 5.4775782,2.9164438 0 1 1 10.955158,0 z" transform="matrix(-0.099526,-0.63973553,0.52030263,-0.75230154,-60.305486,487.96915)" id="path5057" style="color:#000000;fill:#fce94f;fill-opacity:1;fill-rule:nonzero;stroke:#000000;stroke-width:2.06072021;stroke-miterlimit:4;stroke-opacity:1;stroke-dasharray:none;marker:none;visibility:visible;display:inline;overflow:visible;enable-background:accumulate"/>
          <path d="m 96.069681,112.09142 a 2.6637211,1.0343869 0 1 1 -5.327442,0 2.6637211,1.0343869 0 1 1 5.327442,0 z" transform="matrix(-0.00359655,-0.56026224,0.62630431,-0.28361578,-0.17319024,303.83543)" id="path5059" style="color:#000000;fill:#a40000;fill-opacity:1;stroke:#000000;stroke-width:1.6764406;stroke-linecap:butt;stroke-linejoin:round;stroke-miterlimit:4;stroke-opacity:1;stroke-dasharray:none;stroke-dashoffset:0;marker:none;visibility:visible;display:inline;overflow:visible;enable-background:accumulate"/>
        </g>
        <path d="m 52.589694,176.79702 c 0,0 -0.833658,2.18631 0.106177,6.66851 0.927956,7.14065 1.621611,9.37651 1.621611,9.37651 M 51.89136,175.09745 c 0,0 -0.647726,3.87315 0.292098,8.35535 0.927957,7.14065 1.656265,11.03857 1.656265,11.03857 m -2.652961,-20.84131 c 0,0 -0.480837,5.30718 0.458986,9.78938 0.927956,7.14065 1.717783,12.6382 1.717783,12.6382 m -2.982562,-23.87748 c 0,0 -0.212756,6.74373 0.727068,11.22593 0.927956,7.14064 1.770949,14.57407 1.770949,14.57407" id="path5061" style="fill:none;stroke:#2e3436;stroke-width:0.47971338;stroke-linecap:butt;stroke-linejoin:miter;stroke-miterlimit:4;stroke-opacity:1;stroke-dasharray:none"/>
        <path d="m 40.118061,112.01546 c 0,0 -1.544033,1.81748 -0.8393,6.23335 1.489296,9.33194 4.21611,12.24655 4.21611,12.24655 m -4.539553,-21.86158 c 0,0 -1.439107,2.07658 -0.191354,9.6491 1.536783,9.32663 5.210529,16.7701 5.210529,16.7701 m -6.045005,-28.99803 c 0,0 -1.364143,1.72575 0.330776,12.26127 1.501079,9.33066 5.730723,18.7959 5.730723,18.7959 m -6.93916,-33.46606 c 0,0 -1.641597,0.0305 0.667699,14.70596 1.468803,9.33418 6.413479,21.64304 6.413479,21.64304 m -8.147934,-39.16574 c 0,0 -1.090009,2.761 1.219286,17.43649 1.468803,9.33417 7.040175,23.64677 7.040175,23.64677" id="path5063" style="fill:none;stroke:#2e3436;stroke-width:0.47971338;stroke-linecap:butt;stroke-linejoin:miter;stroke-miterlimit:4;stroke-opacity:1;stroke-dasharray:none"/>
        <g transform="matrix(-0.47125198,-0.7452841,1.0000388,-0.57274394,4.9422949,271.71765)" id="g5065" style="fill:#fce94f;fill-opacity:1;stroke-width:0.90455854;stroke-miterlimit:4;stroke-dasharray:none">
          <path d="m 107.97758,269.5 a 5.4775782,2.9164438 0 1 1 -10.955158,0 5.4775782,2.9164438 0 1 1 10.955158,0 z" transform="matrix(0.7736649,0.43655724,-0.33438665,1.0443282,104.16428,-214.20943)" id="path5067" style="color:#000000;fill:#fce94f;fill-opacity:1;fill-rule:nonzero;stroke:#000000;stroke-width:1.21865702;stroke-miterlimit:4;stroke-opacity:1;stroke-dasharray:none;marker:none;visibility:visible;display:inline;overflow:visible;enable-background:accumulate"/>
          <path d="m 89.772664,108.57167 c 0,0 0.378847,-2.29697 -0.756937,-6.20688" id="path5069" style="fill:#fce94f;fill-opacity:1;stroke:#000000;stroke-width:1.19025993;stroke-linecap:butt;stroke-linejoin:miter;stroke-miterlimit:4;stroke-opacity:1;stroke-dasharray:none"/>
          <path d="m 97.64823,114.32796 c 0,0 1.589353,-2.20062 5.34469,-2.23064" id="path5071" style="fill:none;stroke:#000000;stroke-width:1.19025993;stroke-linecap:butt;stroke-linejoin:miter;stroke-miterlimit:4;stroke-opacity:1;stroke-dasharray:none"/>
          <path d="m 96.069681,112.09142 a 2.6637211,1.0343869 0 1 1 -5.327442,0 2.6637211,1.0343869 0 1 1 5.327442,0 z" transform="matrix(0.85208123,0.52340958,-0.52340958,0.85208123,72.486219,-32.309148)" id="path5073" style="color:#000000;fill:#a40000;fill-opacity:1;stroke:#000000;stroke-width:1.19025993;stroke-linecap:butt;stroke-linejoin:round;stroke-miterlimit:4;stroke-opacity:1;stroke-dasharray:none;stroke-dashoffset:0;marker:none;visibility:visible;display:inline;overflow:visible;enable-background:accumulate"/>
        </g>
      </g>
    </g>
    <g xmlns="http://www.w3.org/2000/svg" transform="matrix(-0.79877067,0,0,-0.79877067,1313.2673,-568.86307)" id="g4774">
      <g transform="translate(-197.87113,0)" id="use4736" style="fill:#c4a000">
        <g transform="matrix(1.5272829,-0.39049798,0.38323738,0.98066282,-205.76081,-17.398209)" id="g4938" style="fill:#fce94f;fill-opacity:1;stroke-width:0.56217629;stroke-miterlimit:4;stroke-dasharray:none">
          <path d="m 104.97019,269.5 a 2.4701867,4.4640307 0 1 1 -4.94038,0 2.4701867,4.4640307 0 1 1 4.94038,0 z" transform="matrix(-0.76573595,0.45632906,0.35285583,1.0355014,88.376329,-57.120462)" id="path4940" style="color:#000000;fill:#fce94f;fill-opacity:1;fill-rule:nonzero;stroke:#000000;stroke-width:1.04834104;stroke-miterlimit:4;stroke-opacity:1;stroke-dasharray:none;marker:none;visibility:visible;display:inline;overflow:visible;enable-background:accumulate"/>
          <path d="m 104.04361,268.74146 a 1.3320342,3.4834313 0 1 1 -2.66407,0 1.3320342,3.4834313 0 1 1 2.66407,0 z" transform="matrix(-0.4982478,0.15767391,0.15370326,0.49709972,114.71992,118.92619)" id="path4942" style="color:#000000;fill:#a40000;fill-opacity:1;fill-rule:nonzero;stroke:#000000;stroke-width:1.29294097;stroke-linecap:butt;stroke-linejoin:round;stroke-miterlimit:4;stroke-opacity:1;stroke-dasharray:none;stroke-dashoffset:0;marker:none;visibility:visible;display:inline;overflow:visible;enable-background:accumulate"/>
        </g>
        <path d="m 34.154208,100.73588 c 4.032588,40.32411 7.917596,27.98784 14.189162,66.12152 1.048624,6.88871 1.68406,17.06308 2.137105,20.41886 1.70267,12.34241 2.326103,14.18054 2.326103,14.18054 0,0 8.868914,-0.9296 9.442622,7.13107 l 1.629129,-30.41509 c 0.349185,-2.19154 3.685249,-5.14448 3.975464,-7.35384 0.290214,-2.20935 -2.731289,-3.78506 -2.121377,-8.66103 -0.293124,-21.52306 6.487719,-9.31885 8.994965,-29.32412 -0.374375,-0.86282 -1.721735,0.57411 -1.745527,-2.23428 -0.0238,-2.80837 2.630244,-7.50382 -0.883895,-7.64637 0.195473,-2.53671 4.38649,-5.04085 4.551691,-7.54603 0.1652,-2.50517 1.139246,-4.49782 1.271649,-6.9146 0.437509,-8.659166 -0.661608,1.60433 -0.813011,-7.0211 -0.05311,-2.77896 0.622943,-3.997432 0.740927,-5.797068 C 77.967198,93.874706 77.185004,92.5876 76.453252,90.249206 75.7215,87.910811 74.473314,87.164875 74.473314,87.164875 72.440171,85.96003 67.721991,73.378298 60.964666,73.643518 l -1.44e-4,-2.73e-4 c -1.512924,0.124526 -3.109654,0.754564 -5.201078,0.802851 -6.692557,0.154514 -15.539405,1.507338 -20.398922,13.681915 -2.250208,6.173207 -2.250208,6.173207 -1.210314,12.607869 z" id="path4944" style="fill:#a40000;stroke:#000000;stroke-width:1.19928348;stroke-linecap:butt;stroke-linejoin:miter;stroke-miterlimit:4;stroke-opacity:1;stroke-dasharray:none"/>
        <path d="m 56.760786,137.1172 c 1.337476,7.69942 2.348002,15.43429 2.641197,23.19165 0.07814,0.90069 0.145659,4.75361 0.155776,2.03851 0.14188,-7.4362 0.214575,-21.55516 0.214575,-21.55516 -0.18503,-5.48353 1.300927,-10.36174 1.278945,-15.84346 0.118399,-3.57441 0.241291,-7.13698 -0.16942,-10.71345 -0.08098,-6.35701 1.39947,-11.56641 1.110535,-17.924182 -1.263488,-2.926854 -0.0928,-10.198244 -5.611374,-10.360118 -5.966736,1.666966 -2.631715,4.24031 -3.110203,6.458395 0.126567,4.005339 -0.08491,10.381945 -0.06945,12.480735 0.953644,1.43845 2.710979,21.55224 3.559418,32.22708 z" id="path4946" style="fill:#fce94f;fill-opacity:1;stroke:none"/>
        <g transform="matrix(-0.62870018,-0.5059798,0.65899961,-0.38669691,60.569326,197.90793)" id="g4948" style="fill:#fce94f;fill-opacity:1;stroke-width:1.20031607;stroke-miterlimit:4;stroke-dasharray:none">
          <path d="m 107.97758,269.5 a 5.4775782,2.9164438 0 1 1 -10.955158,0 5.4775782,2.9164438 0 1 1 10.955158,0 z" transform="matrix(0.7736649,0.43655724,-0.33438665,1.0443282,104.16428,-214.20943)" id="path4950" style="color:#000000;fill:#fce94f;fill-opacity:1;fill-rule:nonzero;stroke:#000000;stroke-width:1.61711335;stroke-miterlimit:4;stroke-opacity:1;stroke-dasharray:none;marker:none;visibility:visible;display:inline;overflow:visible;enable-background:accumulate"/>
          <path d="m 89.772664,108.57167 c 0,0 0.378847,-2.29697 -0.756937,-6.20688" id="path4952" style="fill:#fce94f;fill-opacity:1;stroke:#000000;stroke-width:1.5794313;stroke-linecap:butt;stroke-linejoin:miter;stroke-miterlimit:4;stroke-opacity:1;stroke-dasharray:none"/>
          <path d="m 97.64823,114.32796 c 0,0 1.589353,-2.20062 5.34469,-2.23064" id="path4954" style="fill:none;stroke:#000000;stroke-width:1.5794313;stroke-linecap:butt;stroke-linejoin:miter;stroke-miterlimit:4;stroke-opacity:1;stroke-dasharray:none"/>
          <path d="m 96.069681,112.09142 a 2.6637211,1.0343869 0 1 1 -5.327442,0 2.6637211,1.0343869 0 1 1 5.327442,0 z" transform="matrix(0.68424037,0.61042655,-0.76487397,0.77911309,115.22964,-32.257949)" id="path4956" style="color:#000000;fill:#a40000;fill-opacity:1;stroke:#000000;stroke-width:1.5794313;stroke-linecap:butt;stroke-linejoin:round;stroke-miterlimit:4;stroke-opacity:1;stroke-dasharray:none;stroke-dashoffset:0;marker:none;visibility:visible;display:inline;overflow:visible;enable-background:accumulate"/>
        </g>
        <path d="m 97.493416,143.39075 c -1.436465,-2.63352 1.567807,-3.19151 2.974094,-1.62224 1.4858,1.65801 0.83545,4.25168 -0.877597,5.46582 -2.148573,1.52282 -5.161552,0.74085 -6.562198,-1.40775 -1.618872,-2.48335 -0.714932,-5.86007 1.756287,-7.40309 2.751685,-1.71815 6.440318,-0.71112 8.104198,2.02465 1.81267,2.98042 0.7165,6.94326 -2.24683,8.71387 -3.182098,1.90133 -7.39093,0.72627 -9.257952,-2.43854 -1.984422,-3.36381 -0.738261,-7.79674 2.60848,-9.75218 2.90948,-1.69995 6.695312,-1.14902 9.049732,1.24378" transform="matrix(-0.23929886,0.02402267,0.21633521,1.1616814,40.518652,-15.438119)" id="path4958" style="fill:none;stroke:#2e3436;stroke-width:0.90145886;stroke-linecap:butt;stroke-linejoin:miter;stroke-miterlimit:4;stroke-opacity:1;stroke-dasharray:none"/>
        <path d="m 36.062976,90.306518 c -0.435581,-0.965486 1.244799,-4.78998 3.607616,-7.673657 3.348928,-4.087164 5.727849,-5.199765 9.764724,-6.430406 M 36.895227,88.938526 c 0.0089,-1.135036 1.651786,-4.12975 3.398523,-6.26797 2.932324,-3.589524 5.658266,-4.797701 8.38909,-5.56149 M 37.907148,88.193559 c -0.05785,-0.92986 1.467454,-3.482166 2.974327,-5.335744 2.479061,-3.049449 4.305562,-3.872289 6.986341,-4.766775 m -8.814391,8.822889 c 0.103232,-0.749544 1.425284,-2.786584 2.440191,-4.046468 1.972645,-2.4488 3.989312,-3.373755 5.470738,-3.687894 m -6.426162,6.149316 c 0.177025,-0.440357 1.222095,-1.873446 1.675786,-2.450079 1.376103,-1.748997 2.674505,-2.341891 3.705227,-2.440001 m -3.429594,3.348848 c 0.522684,-0.811666 1.539547,-1.58632 2.079788,-1.722548" id="path4960" style="fill:none;stroke:#2e3436;stroke-width:0.47971338;stroke-linecap:butt;stroke-linejoin:miter;stroke-miterlimit:4;stroke-opacity:1;stroke-dasharray:none"/>
        <g transform="matrix(0.87242469,0,0,0.72470514,5.6944713,12.235289)" id="g4962">
          <path d="m 107.97758,269.5 a 5.4775782,2.9164438 0 1 1 -10.955158,0 5.4775782,2.9164438 0 1 1 10.955158,0 z" transform="matrix(-0.099526,-0.63973553,0.52030263,-0.75230154,-60.305486,487.96915)" id="path4964" style="color:#000000;fill:#fce94f;fill-opacity:1;fill-rule:nonzero;stroke:#000000;stroke-width:2.06072021;stroke-miterlimit:4;stroke-opacity:1;stroke-dasharray:none;marker:none;visibility:visible;display:inline;overflow:visible;enable-background:accumulate"/>
          <path d="m 96.069681,112.09142 a 2.6637211,1.0343869 0 1 1 -5.327442,0 2.6637211,1.0343869 0 1 1 5.327442,0 z" transform="matrix(-0.00359655,-0.56026224,0.62630431,-0.28361578,-0.17319024,303.83543)" id="path4966" style="color:#000000;fill:#a40000;fill-opacity:1;stroke:#000000;stroke-width:1.6764406;stroke-linecap:butt;stroke-linejoin:round;stroke-miterlimit:4;stroke-opacity:1;stroke-dasharray:none;stroke-dashoffset:0;marker:none;visibility:visible;display:inline;overflow:visible;enable-background:accumulate"/>
        </g>
        <path d="m 52.589694,176.79702 c 0,0 -0.833658,2.18631 0.106177,6.66851 0.927956,7.14065 1.621611,9.37651 1.621611,9.37651 M 51.89136,175.09745 c 0,0 -0.647726,3.87315 0.292098,8.35535 0.927957,7.14065 1.656265,11.03857 1.656265,11.03857 m -2.652961,-20.84131 c 0,0 -0.480837,5.30718 0.458986,9.78938 0.927956,7.14065 1.717783,12.6382 1.717783,12.6382 m -2.982562,-23.87748 c 0,0 -0.212756,6.74373 0.727068,11.22593 0.927956,7.14064 1.770949,14.57407 1.770949,14.57407" id="path4968" style="fill:none;stroke:#2e3436;stroke-width:0.47971338;stroke-linecap:butt;stroke-linejoin:miter;stroke-miterlimit:4;stroke-opacity:1;stroke-dasharray:none"/>
        <path d="m 40.118061,112.01546 c 0,0 -1.544033,1.81748 -0.8393,6.23335 1.489296,9.33194 4.21611,12.24655 4.21611,12.24655 m -4.539553,-21.86158 c 0,0 -1.439107,2.07658 -0.191354,9.6491 1.536783,9.32663 5.210529,16.7701 5.210529,16.7701 m -6.045005,-28.99803 c 0,0 -1.364143,1.72575 0.330776,12.26127 1.501079,9.33066 5.730723,18.7959 5.730723,18.7959 m -6.93916,-33.46606 c 0,0 -1.641597,0.0305 0.667699,14.70596 1.468803,9.33418 6.413479,21.64304 6.413479,21.64304 m -8.147934,-39.16574 c 0,0 -1.090009,2.761 1.219286,17.43649 1.468803,9.33417 7.040175,23.64677 7.040175,23.64677" id="path4970" style="fill:none;stroke:#2e3436;stroke-width:0.47971338;stroke-linecap:butt;stroke-linejoin:miter;stroke-miterlimit:4;stroke-opacity:1;stroke-dasharray:none"/>
        <g transform="matrix(-0.47125198,-0.7452841,1.0000388,-0.57274394,4.9422949,271.71765)" id="g4972" style="fill:#fce94f;fill-opacity:1;stroke-width:0.90455854;stroke-miterlimit:4;stroke-dasharray:none">
          <path d="m 107.97758,269.5 a 5.4775782,2.9164438 0 1 1 -10.955158,0 5.4775782,2.9164438 0 1 1 10.955158,0 z" transform="matrix(0.7736649,0.43655724,-0.33438665,1.0443282,104.16428,-214.20943)" id="path4974" style="color:#000000;fill:#fce94f;fill-opacity:1;fill-rule:nonzero;stroke:#000000;stroke-width:1.21865702;stroke-miterlimit:4;stroke-opacity:1;stroke-dasharray:none;marker:none;visibility:visible;display:inline;overflow:visible;enable-background:accumulate"/>
          <path d="m 89.772664,108.57167 c 0,0 0.378847,-2.29697 -0.756937,-6.20688" id="path4977" style="fill:#fce94f;fill-opacity:1;stroke:#000000;stroke-width:1.19025993;stroke-linecap:butt;stroke-linejoin:miter;stroke-miterlimit:4;stroke-opacity:1;stroke-dasharray:none"/>
          <path d="m 97.64823,114.32796 c 0,0 1.589353,-2.20062 5.34469,-2.23064" id="path4979" style="fill:none;stroke:#000000;stroke-width:1.19025993;stroke-linecap:butt;stroke-linejoin:miter;stroke-miterlimit:4;stroke-opacity:1;stroke-dasharray:none"/>
          <path d="m 96.069681,112.09142 a 2.6637211,1.0343869 0 1 1 -5.327442,0 2.6637211,1.0343869 0 1 1 5.327442,0 z" transform="matrix(0.85208123,0.52340958,-0.52340958,0.85208123,72.486219,-32.309148)" id="path4981" style="color:#000000;fill:#a40000;fill-opacity:1;stroke:#000000;stroke-width:1.19025993;stroke-linecap:butt;stroke-linejoin:round;stroke-miterlimit:4;stroke-opacity:1;stroke-dasharray:none;stroke-dashoffset:0;marker:none;visibility:visible;display:inline;overflow:visible;enable-background:accumulate"/>
        </g>
      </g>
    </g>
    <linearGradient xmlns="http://www.w3.org/2000/svg" id="linearGradient3293">
      <stop id="stop3295" style="stop-color:#ffffff;stop-opacity:1" offset="0"/>
      <stop id="stop3297" style="stop-color:#cccccc;stop-opacity:1" offset="1"/>
    </linearGradient>
    <linearGradient xmlns="http://www.w3.org/2000/svg" xmlns:xlink="http://www.w3.org/1999/xlink" x1="135.06662" y1="-723.17877" x2="-384.7966" y2="-723.17877" id="linearGradient4973" xlink:href="#linearGradient3293" gradientUnits="userSpaceOnUse"/>
    <g xmlns="http://www.w3.org/2000/svg" transform="matrix(1.2350959,0,0,1.2350959,-180.14116,116.14309)" id="text7885" style="font-size:19.33501625px;font-style:normal;font-variant:normal;font-weight:normal;font-stretch:normal;line-height:125%;font-family:FreeSerif;-inkscape-font-specification:FreeSerif">
      <path d="m 1185.4275,-579.9376 0,0.30936 -4.099,12.6451 -1.2568,0 3.8283,-11.52367 -4.1956,0 c -0.5285,10e-6 -0.9346,0.0967 -1.2182,0.29003 -0.2706,0.19336 -0.6122,0.61873 -1.0247,1.27611 l -0.3287,-0.15468 1.1408,-2.84225 7.1539,0" id="path7921" style="font-size:19.33501625px;font-style:normal;font-variant:normal;font-weight:normal;font-stretch:normal;line-height:125%;font-family:FreeSerif;-inkscape-font-specification:FreeSerif"/>
    </g>
    <use xmlns="http://www.w3.org/2000/svg" xmlns:xlink="http://www.w3.org/1999/xlink" transform="translate(-578.76557,1410.5257)" id="use3870" x="0" y="0" width="2485" height="1592" xlink:href="#g4770"/>
    <use xmlns="http://www.w3.org/2000/svg" xmlns:xlink="http://www.w3.org/1999/xlink" transform="matrix(-1,0,0,-1,2504.5548,-183.3429)" id="use3872" x="0" y="0" width="2485" height="1592" xlink:href="#g4774"/>
    <use xmlns="http://www.w3.org/2000/svg" xmlns:xlink="http://www.w3.org/1999/xlink" transform="translate(0.41026307,1180.0576)" id="use3874" x="0" y="0" width="2485" height="1592" xlink:href="#g4744"/>
  </defs>
  <g xmlns:xlink="http://www.w3.org/1999/xlink" transform="translate(-1246.5 -413.864642)">
    <g xmlns="http://www.w3.org/2000/svg" xmlns:xlink="http://www.w3.org/1999/xlink" transform="translate(6,1.002462)" id="7_club">
      <use transform="translate(1242,1286)" id="use7530" x="0" y="0" width="2496" height="1595" xlink:href="#card_body"/>
      <use transform="translate(471.5,1286)" id="use7656" x="0" y="0" width="2496" height="1595" xlink:href="#frame_bastos"/>
      <use transform="translate(0,953.99968)" id="use3238" x="0" y="0" width="2485" height="1592" xlink:href="#g3234"/>
      <use transform="translate(206.99998,0)" id="use3892" x="0" y="0" width="2485" height="1592" xlink:href="#g3884"/>
      <use transform="translate(414,0)" id="use3894" x="0" y="0" width="2485" height="1592" xlink:href="#use3870"/>
    </g>
  </g>
</svg>
