<?xml version="1.0" encoding="UTF-8"?>
<svg xmlns="http://www.w3.org/2000/svg" xmlns:xlink="http://www.w3.org/1999/xlink" xmlns:xlink="http://www.w3.org/1999/xlink" width="211" height="322" viewBox="0 0 211 322">
  <defs xmlns:xlink="http://www.w3.org/1999/xlink">
    <rect xmlns="http://www.w3.org/2000/svg" width="207" height="318" rx="15" ry="15" x="0.5" y="-871.13782" id="card_body" style="fill:url(#linearGradient4973);fill-opacity:1;stroke:#000000;stroke-width:1;stroke-linecap:square;stroke-linejoin:miter;stroke-miterlimit:4;stroke-opacity:1;stroke-dasharray:none"/>
    <path xmlns="http://www.w3.org/2000/svg" d="m 526.16667,-856.63781 59.33333,0 0,288.99998 -59.33333,0 m -59.33334,0 -59.33333,0 0,-288.99998 59.33333,0" id="frame_copas" style="fill:none;stroke:#000000;stroke-width:1;stroke-opacity:1"/>
    <g xmlns="http://www.w3.org/2000/svg" xmlns:xlink="http://www.w3.org/1999/xlink" id="g3349">
      <use transform="translate(1071.49,79.99828)" id="use3345" x="0" y="0" width="2485" height="1592" xlink:href="#text3336"/>
      <use transform="matrix(-1,0,0,-1,4126.5097,-840.27328)" id="use3347" x="0" y="0" width="2485" height="1592" xlink:href="#text3336"/>
    </g>
    <linearGradient xmlns="http://www.w3.org/2000/svg" id="linearGradient3293">
      <stop id="stop3295" style="stop-color:#ffffff;stop-opacity:1" offset="0"/>
      <stop id="stop3297" style="stop-color:#cccccc;stop-opacity:1" offset="1"/>
    </linearGradient>
    <linearGradient xmlns="http://www.w3.org/2000/svg" xmlns:xlink="http://www.w3.org/1999/xlink" x1="135.06662" y1="-723.17877" x2="-384.7966" y2="-723.17877" id="linearGradient4973" xlink:href="#linearGradient3293" gradientUnits="userSpaceOnUse"/>
    <g xmlns="http://www.w3.org/2000/svg" transform="matrix(0.9797102,0,0,0.9797102,103.73636,-28.82938)" id="text3336" style="font-size:23.66863823px;font-style:normal;font-variant:normal;font-weight:normal;font-stretch:normal;line-height:125%;font-family:FreeSerif;-inkscape-font-specification:FreeSerif">
      <path d="m 1368.7142,-581.17332 c -0.2841,10e-6 -0.8521,0.17358 -1.7042,0.52071 l 0,-0.33136 4.2604,-2.15385 0.1893,0.0473 0,14.20118 c 0,0.56805 0.142,0.93886 0.4261,1.11243 0.284,0.17357 0.8915,0.26824 1.8225,0.28402 l 0,0.35503 -6.5326,0 0,-0.35503 c 0.8836,-0.0316 1.4754,-0.15779 1.7752,-0.3787 0.3155,-0.23668 0.4733,-0.72583 0.4733,-1.46745 l 0,-10.72189 c 0,-0.74161 -0.2367,-1.11242 -0.71,-1.11243" id="path3341"/>
      <path d="m 1378.1343,-568.98397 c 0.3629,0 0.8994,0.22091 1.6095,0.66272 0.7258,0.44182 1.357,0.66272 1.8934,0.66272 0.8679,0 1.6016,-0.33925 2.2012,-1.01775 0.5996,-0.6785 0.8994,-1.51479 0.8994,-2.50887 0,-0.61538 -0.1104,-1.15976 -0.3313,-1.63314 -0.2052,-0.47337 -0.4734,-0.83629 -0.8048,-1.08876 -0.3313,-0.26824 -0.7258,-0.48125 -1.1834,-0.63905 -0.4576,-0.17356 -0.8915,-0.28402 -1.3018,-0.33136 -0.3944,-0.0473 -0.8205,-0.071 -1.2781,-0.071 l 0,-0.30769 c 0.5365,-0.18934 0.9941,-0.3708 1.3728,-0.54438 0.3945,-0.18934 0.8047,-0.43391 1.2308,-0.73373 0.426,-0.31557 0.7495,-0.69427 0.9704,-1.13609 0.2367,-0.44181 0.355,-0.94674 0.355,-1.51479 0,-0.74161 -0.2446,-1.3491 -0.7337,-1.82249 -0.4734,-0.47336 -1.0967,-0.71004 -1.8698,-0.71006 -0.7416,2e-5 -1.3965,0.20514 -1.9645,0.61539 -0.5523,0.39449 -1.073,1.02565 -1.5622,1.89349 l -0.355,-0.0947 c 0.4103,-1.1203 0.9625,-2.03549 1.6568,-2.74556 0.7101,-0.72582 1.7121,-1.08874 3.0059,-1.08876 1.0888,2e-5 1.9724,0.29982 2.6509,0.89941 0.6943,0.59962 1.0414,1.38069 1.0414,2.3432 0,0.64695 -0.1656,1.215 -0.497,1.70414 -0.3314,0.48916 -0.9073,1.00987 -1.7278,1.56213 0.9467,0.41026 1.6884,0.93886 2.2248,1.5858 0.5365,0.63117 0.8048,1.53847 0.8048,2.72189 0,1.67259 -0.6233,3.01381 -1.8698,4.02367 -1.2308,0.99408 -2.7851,1.49112 -4.6628,1.49112 -0.8205,0 -1.4753,-0.11834 -1.9645,-0.35503 -0.4733,-0.25246 -0.71,-0.58382 -0.71,-0.99408 0,-0.25246 0.079,-0.4497 0.2367,-0.59171 0.1735,-0.15779 0.3944,-0.23669 0.6627,-0.23669" id="path3343"/>
    </g>
  </defs>
  <g xmlns:xlink="http://www.w3.org/1999/xlink" transform="translate(-2514.5 224.135358)">
    <g xmlns="http://www.w3.org/2000/svg" xmlns:xlink="http://www.w3.org/1999/xlink" transform="translate(21,-1.997528)" id="king_heart">
      <use transform="translate(2495,650.99999)" id="use3316" x="0" y="0" width="2485" height="1592" xlink:href="#card_body"/>
      <use transform="translate(2102.5,650.99999)" id="use3324" x="0" y="0" width="2485" height="1592" xlink:href="#frame_copas"/>
      <use transform="translate(0,318.99967)" id="use3355" x="0" y="0" width="2485" height="1592" xlink:href="#g3349"/>
    </g>
  </g>
</svg>
