<?xml version="1.0" encoding="UTF-8"?>
<svg xmlns="http://www.w3.org/2000/svg" xmlns:xlink="http://www.w3.org/1999/xlink" xmlns:xlink="http://www.w3.org/1999/xlink" width="211" height="322" viewBox="0 0 211 322">
  <defs xmlns:xlink="http://www.w3.org/1999/xlink">
    <rect xmlns="http://www.w3.org/2000/svg" width="207" height="318" rx="15" ry="15" x="0.5" y="-871.13782" id="card_body" style="fill:url(#linearGradient4973);fill-opacity:1;stroke:#000000;stroke-width:1;stroke-linecap:square;stroke-linejoin:miter;stroke-miterlimit:4;stroke-opacity:1;stroke-dasharray:none"/>
    <path xmlns="http://www.w3.org/2000/svg" d="m 218.5,-856.63784 178,0 0,289.00004 -178,0 z" id="frame_oros" style="fill:none;stroke:#000000;stroke-opacity:1"/>
    <g xmlns="http://www.w3.org/2000/svg" transform="matrix(0.90865275,0,0,0.90865275,951.3221,-966.56793)" id="g3014" style="display:inline">
      <path d="m 116.16339,184.06943 -0.50351,5.53876 -5.13638,-2.13282 -0.93653,5.48217 -4.9532,-2.52923 -1.36377,5.39179 -4.739492,-2.91006 -1.782597,5.26817 -4.496563,-3.27295 -2.190438,5.11208 -4.225909,-3.61566 -2.584775,4.92445 -3.9292,-3.93607 -2.963175,4.70648 -3.608268,-4.23222 -3.323306,4.45948 -3.265088,-4.50228 -3.662949,4.18499 -2.901778,-4.74457 -3.980008,3.88469 -2.520578,-4.95761 -4.272528,3.56045 -2.123838,-5.1401 -4.538707,3.21426 -1.714004,-5.29088 -4.776904,2.84824 -1.293601,-5.40905 -4.98565,2.46467 -0.865224,-5.49387 -5.163657,2.06591 -0.431512,-5.54483 -5.309828,1.65441 0.0049,-5.56159 -5.423263,1.2327 0.441202,-5.54406 -5.5032615,0.80339 0.8748247,-5.49235 -5.5493309,0.36914 1.3030532,-5.40679 -5.5611865,-0.0674 1.72324801,-5.28788 -5.53875561,-0.50351 2.1328185,-5.13638 -5.4821764,-0.93653 2.5292393,-4.9532 -5.3917978,-1.36377 2.9100666,-4.73949 -5.2681766,-1.7826 3.272952,-4.49656 -5.112076,-2.19044 3.615659,-4.22591 -4.924457,-2.58477 3.936074,-3.9292 -4.706477,-2.96318 4.232222,-3.60827 -4.459481,-3.3233 4.502277,-3.26509 -4.184991,-3.66295 4.744574,-2.90178 -3.884698,-3.980006 4.957619,-2.520578 -3.560455,-4.272528 5.140099,-2.123838 -3.214261,-4.538707 5.2908879,-1.714004 -2.8482489,-4.776904 5.4090565,-1.293601 -2.4646774,-4.98565 5.4938773,-0.865224 -2.06591,-5.163657 5.54482618,-0.431512 -1.65440568,-5.309828 5.5615894,0.0049 -1.2327014,-5.423263 5.5440635,0.441202 -0.803397,-5.503262 5.4923566,0.874825 -0.369139,-5.549331 5.406787,1.303054 0.06739,-5.561187 5.287884,1.723248 0.503512,-5.538756 5.136379,2.132819 0.936525,-5.482176 4.953206,2.529239 1.363765,-5.391798 4.739495,2.910067 1.782597,-5.268177 4.496563,3.272952 2.190438,-5.112076 4.225909,3.615659 2.584775,-4.924457 3.9292,3.936074 2.963175,-4.706477 3.608268,4.232222 3.323306,-4.459481 3.265088,4.502277 3.662949,-4.184991 2.901778,4.744574 3.980008,-3.884698 2.520578,4.957619 4.272528,-3.560455 2.123838,5.140099 4.538707,-3.214261 1.714004,5.290888 4.776899,-2.848249 1.29361,5.409057 4.98565,-2.464678 0.86522,5.493877 5.16366,-2.06591 0.43151,5.544827 5.30983,-1.654406 -0.005,5.561589 5.42326,-1.232701 -0.4412,5.544063 5.50326,-0.803397 -0.87483,5.492357 5.54934,-0.369139 -1.30306,5.406787 5.56119,0.06739 -1.72325,5.287884 5.53876,0.503512 -2.13282,5.136379 5.48217,0.936525 -2.52923,4.953206 5.39179,1.363765 -2.91006,4.739495 5.26817,1.782597 -3.27295,4.496563 5.11208,2.190438 -3.61566,4.225909 4.92445,2.584771 -3.93607,3.9292 4.70648,2.96318 -4.23222,3.60827 4.45948,3.3233 -4.50228,3.26509 4.18499,3.66295 -4.74457,2.90178 3.88469,3.98001 -4.95761,2.52057 3.56045,4.27253 -5.1401,2.12384 3.21426,4.53871 -5.29088,1.714 2.84824,4.7769 -5.40905,1.29361 2.46467,4.98565 -5.49387,0.86522 2.06591,5.16366 -5.54483,0.43151 1.65441,5.30983 -5.56159,-0.005 1.2327,5.42326 -5.54406,-0.4412 0.80339,5.50326 -5.49235,-0.87483 0.36914,5.54934 -5.40679,-1.30306 -0.0674,5.56119 z" transform="matrix(0.62160146,0,0,0.62160146,60.487898,88.637434)" id="path3819-3" style="fill:#000000;fill-opacity:1;stroke:#2e3436;stroke-width:0.40000001;stroke-linecap:round;stroke-linejoin:miter;stroke-miterlimit:4;stroke-opacity:1;stroke-dasharray:none"/>
      <path d="m 160,144 a 60,60 0 1 1 -120,0 60,60 0 1 1 120,0 z" transform="matrix(0.85950413,0,0,0.85950413,18.049587,35.731405)" id="path2995" style="fill:url(#radialGradient4975);fill-opacity:1;stroke:#000000;stroke-width:1;stroke-linecap:square;stroke-linejoin:miter;stroke-miterlimit:4;stroke-opacity:1;stroke-dasharray:none"/>
      <g id="g3820">
        <path d="m 124.39715,165.18597 c 0.48028,0.0327 1.10554,0.24781 1.52502,0.99968 0.34244,0.61404 1.14468,0.71197 1.51923,0.58826 0.62393,-0.20617 1.42141,-0.34918 2.19392,0.20128 0.77248,0.55034 1.60669,0.1341 1.46038,-0.8691 -0.1463,-1.00311 -0.50869,-1.89667 -1.47058,-2.45004 -2.10074,-1.2085 -0.64071,-2.04958 -1.79371,-3.26244 -1.15524,-1.21525 -0.90003,-1.58715 -0.86171,-3.23761 3.90449,-0.58654 6.11743,-1.71192 8.5885,-4.79925 2.47105,-3.08747 3.42897,-5.62882 3.68511,-9.49962 0.25612,-3.87081 0.034,-6.37938 -1.63831,-9.5924 -1.67239,-3.21304 -3.43321,-4.75973 -6.48458,-6.36406 -3.05138,-1.60406 -6.04118,-1.98827 -8.80472,-1.94149 -2.76352,0.0467 -4.60495,0.24913 -6.16645,1.14005 -1.5614,0.89091 -2.98981,2.01206 -3.90041,2.02012 -0.91074,0.008 -1.53071,-0.23051 -1.97333,-0.56963 -0.11813,3.0005 2.58234,3.26112 4.99827,3.32457 2.41609,0.0634 3.90067,-0.93611 6.1259,-0.56435 2.22524,0.37178 5.86859,1.38443 7.64341,4.47374 1.77481,3.08931 1.83535,4.18138 1.68785,6.77204 -0.14751,2.5908 -2.37734,4.52367 -3.63608,4.5447 -1.25859,0.021 -1.53956,-0.34349 -2.64127,-1.06208 -1.10185,-0.71869 -6.72658,-7.68158 -8.64587,-9.24561 -1.91939,-1.56401 -3.81342,-2.04693 -5.85852,-2.07204 -2.04509,-0.0252 -2.56766,0.0443 -4.21708,0.72028 -1.64939,0.67588 -2.66294,1.92074 -3.99276,2.68173 -0.67971,-0.40006 -1.102,-0.99744 -1.72566,-1.45327 -2.230527,-1.63023 -3.389457,-2.06954 -6.040521,-1.81157 -1.523715,0.1483 -3.444964,1.01873 -4.591349,2.0155 -2.041259,1.77481 -3.727671,4.24575 -5.090396,6.12286 -1.061144,1.46185 -2.309821,3.21091 -4.092439,3.75766 -1.946373,0.59671 -3.411,-1.92417 -3.626033,-3.32245 -0.121872,-0.79232 -0.280847,-1.48672 -0.282167,-2.35872 -0.0013,-0.87214 0.08783,-1.93051 0.339128,-2.83938 0.251373,-0.90891 0.681967,-1.8133 1.148234,-2.56318 0.758882,-1.22053 2.000555,-2.49776 3.292449,-3.15487 0.72506,-0.36874 2.430886,-1.0392 3.506163,-1.06273 1.317533,-0.0285 2.321314,0.41407 3.539459,0.49706 1.474424,0.10063 4.108171,0.43206 5.26406,-0.70706 0.73562,-0.72492 0.828142,-1.2085 0.953825,-2.15373 -0.324985,0.26775 -0.779495,0.4438 -1.184046,0.47803 -0.923294,0.078 -1.787775,-0.67587 -2.53304,-1.11268 -0.613901,-0.35988 -1.483275,-1.00298 -2.289601,-1.32798 -2.071789,-0.83527 -4.616724,-0.81121 -6.803755,-0.58747 -1.753019,0.17922 -4.025833,0.9591 -5.563278,1.82915 -1.544726,0.87386 -3.033281,2.34734 -4.123636,3.73638 -1.371716,1.74773 -2.121607,3.24725 -2.618419,5.42701 -0.635038,2.78364 -0.811078,6.96528 -0.04336,9.7099 0.605051,2.16286 2.614056,5.4853 4.324244,7.11395 1.686666,1.60645 3.634234,2.38185 5.849017,2.80597 -0.08671,0.44697 -0.101031,0.86381 -0.215548,1.2303 -0.162838,0.5202 -0.474214,1.10012 -1.113881,0.91669 -0.255069,-0.0731 -0.391601,-0.13647 -0.72795,0.15779 -0.336098,0.29421 -0.161114,1.43067 0.784786,1.9407 0.479621,0.25863 0.985799,0.31481 1.753936,0.33013 0.768126,0.0153 1.966983,0.0187 2.800935,-0.12742 0.833813,-0.14591 1.331943,-0.80765 2.255499,-0.91128 1.427232,-0.15964 2.520088,-1.19078 3.664485,-1.92825 0.477509,-0.30781 0.638609,-0.311 0.913773,-0.46655 -0.148678,0.45517 -0.346924,0.92793 -0.445783,1.36553 -0.09908,0.43759 -0.05684,0.84294 -0.1095,1.19317 -0.05239,0.34996 -0.14947,0.62208 -0.206042,0.90597 -0.228638,0.20446 -0.30172,0.51543 -0.685789,0.61323 -0.384333,0.0976 -0.986075,-0.0544 -1.379261,-0.10722 -0.393185,-0.0527 -0.656716,-0.26711 -0.965189,-0.20843 -0.308723,0.0586 -0.6012,0.27954 -0.859855,0.48663 -0.25864,0.2071 -0.480941,0.23737 -0.690277,0.75413 -0.209349,0.51676 -0.401384,1.57498 -0.430066,2.28232 -0.02862,0.70735 0.05058,1.34583 0.260225,1.90712 0.209613,0.56131 0.393852,0.81016 0.961492,1.36604 0.56764,0.55601 1.491989,1.37185 2.414364,1.94016 -0.169828,0.2515 -0.245161,0.48173 -0.510027,0.75465 -0.264851,0.27305 -0.817025,0.579 -1.062713,0.86698 -0.245439,0.28799 -0.369938,0.49456 -0.373495,0.81756 -0.0042,0.32288 0.01251,0.74263 0.274107,1.09471 0.653007,0.87664 1.425369,1.03365 2.364531,1.446 -0.157934,0.98622 -0.286795,1.69077 -0.0585,2.67551 0.0931,0.40125 0.300148,1.31106 0.795097,1.54447 0.495088,0.2334 1.449701,0.12034 2.053946,0.21635 0.604258,0.0961 0.942469,0.18727 1.413488,0.28086 0.286266,0.41379 0.712497,0.87042 0.858533,1.24125 0.146303,0.371 0.102145,0.50396 -0.02057,0.88274 -0.122706,0.37877 -0.540807,0.93029 -0.659218,1.37383 -0.118402,0.44355 -0.141424,0.92105 -0.03099,1.36578 0.110759,0.44472 0.300148,0.76746 0.679187,1.16236 0.378914,0.39505 1.124443,0.70522 1.495824,1.02533 0.37165,0.32023 0.74157,0.35868 0.64019,0.88852 -0.13942,0.72771 -1.202674,1.90791 -1.97187,2.18891 -0.460985,0.1685 -1.079764,0.11537 -1.639609,-0.12091 0.03794,0.62156 0.575825,1.04052 0.927252,1.45326 -0.95171,-0.27211 -1.874599,-0.79312 -2.512944,-1.48367 0.197982,0.59976 0.879142,1.56257 1.897986,2.40802 1.018857,0.84547 1.012645,0.67244 1.519087,1.00881 -0.924084,0.18568 -1.783411,0.13549 -2.499202,0.006 0.392394,0.21635 1.035631,0.5206 1.88769,0.61006 0.852045,0.0894 1.377398,0.0261 2.14527,-0.16031 0.768,-0.1866 1.46899,-0.8847 2.39955,-1.36591 -0.0906,0.34522 -0.15515,0.76034 -0.54649,1.11533 -0.39134,0.35499 -0.98343,0.53554 -1.61279,0.84255 0.80117,-0.0908 1.64306,-0.11837 2.43035,-0.29195 0.58284,-0.12854 0.97444,-0.265 1.40093,-0.47619 0.42622,-0.2112 0.75532,-0.51927 1.132887,-0.77885 -0.180917,0.3456 -0.234567,0.75215 -0.542517,1.0371 -0.30793,0.28494 -0.80844,0.39106 -1.21326,0.5868 0.42227,-0.01 0.8284,0.0822 1.26613,-0.0278 0.437987,-0.1101 0.848747,-0.28309 1.304057,-0.61852 0.4553,-0.33544 0.92487,-0.74844 1.31343,-1.17071 0.38829,-0.42225 0.86779,-0.96968 1.0129,-1.35903 0.14538,-0.38948 -0.0872,-0.66187 -0.13091,-0.99241 0.26817,0.17617 0.59803,0.27318 0.80407,0.52891 0.20605,0.25573 0.38871,0.48927 0.29751,0.93506 -0.0913,0.44578 -0.50276,0.99069 -0.79365,1.48657 0.86806,-0.70986 1.35283,-0.98315 1.5594,-1.83945 0.19335,-0.80171 -0.30689,-1.52939 -0.68712,-2.13562 -0.18886,-0.30108 -0.47143,-0.58125 -0.64798,-0.87188 0.39211,-0.38368 0.84029,-0.71342 1.17637,-1.15102 0.33597,-0.43746 0.47711,-1.02955 0.82008,-1.44811 0.3431,-0.4187 0.80461,-0.68368 1.20652,-1.02505 -0.35328,0.75887 -0.93387,1.68971 -1.05996,2.27704 -0.1259,0.58733 0.14129,0.94681 0.34971,1.26389 0.20856,0.31703 0.54505,0.38775 0.86421,0.58255 0.31918,0.19495 0.81559,0.0412 1.00578,0.33054 0.19004,0.28917 0.24105,0.72427 0.0593,1.01079 l -0.74541,1.17652 c 0.27464,-0.13868 0.74778,-0.54187 0.96109,-0.82787 0.21331,-0.28601 0.54056,-0.5502 0.58535,-0.9369 0.0448,-0.38658 0.0665,-0.72214 -0.18383,-1.06657 -0.25059,-0.34428 -0.93651,-0.45952 -1.24352,-0.72425 -0.30703,-0.26473 -0.47923,-0.43707 -0.46165,-0.77923 0.0176,-0.34217 0.35169,-0.58694 0.63902,-0.80262 0.87715,-0.65791 2.0024,-1.26414 2.74726,-2.05713 0.42082,-0.44804 0.62276,-0.80976 0.70734,-1.1189 0.0845,-0.30899 -0.006,-0.55006 -0.21398,-0.93016 -0.20906,-0.38022 -0.92605,-0.88787 -1.01328,-1.30088 -0.0871,-0.41288 0.27502,-0.50156 0.60187,-0.64719 0.32684,-0.14566 0.94762,0.0746 1.25079,-0.1787 0.30306,-0.25335 -0.0891,-0.78571 0.25256,-1.07765 0.34152,-0.29196 1.12327,-0.12896 1.52676,-0.44302 0.40349,-0.31414 0.57028,-0.70403 0.70932,-1.15973 0.13904,-0.4557 0.15477,-0.95489 0.0606,-1.28489 -0.0942,-0.33001 -0.37733,-0.38777 -0.5481,-0.5588 -0.17074,-0.17102 -0.31889,-0.31281 -0.0913,-0.56789 0.22759,-0.25495 0.97338,0.0143 1.40211,-0.3131 0.42875,-0.32736 0.16628,-1.11149 0.46946,-1.44203 0.30304,-0.33055 0.84702,-0.20115 1.13409,-0.30676 0.28693,-0.10555 0.39953,0.26698 0.57557,-0.32221 0.17604,-0.58931 0.1808,-2.3459 0.41765,-3.00142 0.23683,-0.65554 0.70189,-0.0443 0.91786,-0.69585 0.21595,-0.65141 0.0108,-1.69326 0.10855,-2.67723 l 0.44076,-2.67722 c 1.53758,1.03285 2.55259,1.35718 4.2045,1.64901 0.13785,4.0418 0.51756,6.42193 -0.85429,10.90609 -1.37186,4.48405 -4.1482,7.12678 -7.89359,10.92317 4.94225,-3.70269 7.30174,-6.71285 8.77855,-10.5691 1.47704,-3.85678 1.19343,-7.0821 1.04489,-10.79588 z" id="path3818" style="fill:#edd400;fill-opacity:1;stroke:#000000;stroke-width:0.1;stroke-miterlimit:4;stroke-opacity:1;stroke-dasharray:none"/>
        <path d="m 124.39715,165.18597 c 0.48028,0.0327 1.10554,0.24781 1.52502,0.99968 0.34244,0.61404 1.14468,0.71197 1.51923,0.58826 0.62393,-0.20617 1.42141,-0.34918 2.19392,0.20128 0.77248,0.55034 1.60669,0.1341 1.46038,-0.8691 -0.1463,-1.00311 -0.50869,-1.89667 -1.47058,-2.45004 -2.10074,-1.2085 -0.64071,-2.04958 -1.79371,-3.26244 -1.15524,-1.21525 -0.90003,-1.58715 -0.86171,-3.23761 3.90449,-0.58654 6.11743,-1.71192 8.5885,-4.79925 2.47105,-3.08747 3.42897,-5.62882 3.68511,-9.49962 0.25612,-3.87081 0.034,-6.37938 -1.63831,-9.5924 -1.67239,-3.21304 -3.43321,-4.75973 -6.48458,-6.36406 -3.05138,-1.60406 -6.04118,-1.98827 -8.80472,-1.94149 -2.76352,0.0467 -4.60495,0.24913 -6.16645,1.14005 -1.5614,0.89091 -2.98981,2.01206 -3.90041,2.02012 -0.91074,0.008 -1.53071,-0.23051 -1.97333,-0.56963 -0.11813,3.0005 2.58234,3.26112 4.99827,3.32457 2.41609,0.0634 3.90067,-0.93611 6.1259,-0.56435 2.22524,0.37178 5.86859,1.38443 7.64341,4.47374 1.77481,3.08931 1.83535,4.18138 1.68785,6.77204 -0.14751,2.5908 -2.37734,4.52367 -3.63608,4.5447 -1.25859,0.021 -1.53956,-0.34349 -2.64127,-1.06208 -1.10185,-0.71869 -6.72658,-7.68158 -8.64587,-9.24561 -1.91939,-1.56401 -3.81342,-2.04693 -5.85852,-2.07204 -2.04509,-0.0252 -2.56766,0.0443 -4.21708,0.72028 -1.64939,0.67588 -2.66294,1.92074 -3.99276,2.68173 -0.67971,-0.40006 -1.102,-0.99744 -1.72566,-1.45327 -2.230527,-1.63023 -3.389457,-2.06954 -6.040521,-1.81157 -1.523715,0.1483 -3.444964,1.01873 -4.591349,2.0155 -2.041259,1.77481 -3.727671,4.24575 -5.090396,6.12286 -1.061144,1.46185 -2.309821,3.21091 -4.092439,3.75766 -1.946373,0.59671 -3.411,-1.92417 -3.626033,-3.32245 -0.121872,-0.79232 -0.280847,-1.48672 -0.282167,-2.35872 -0.0013,-0.87214 0.08783,-1.93051 0.339128,-2.83938 0.251373,-0.90891 0.681967,-1.8133 1.148234,-2.56318 0.758882,-1.22053 2.000555,-2.49776 3.292449,-3.15487 0.72506,-0.36874 2.430886,-1.0392 3.506163,-1.06273 1.317533,-0.0285 2.321314,0.41407 3.539459,0.49706 1.474424,0.10063 4.108171,0.43206 5.26406,-0.70706 0.73562,-0.72492 0.828142,-1.2085 0.953825,-2.15373 -0.324985,0.26775 -0.779495,0.4438 -1.184046,0.47803 -0.923294,0.078 -1.787775,-0.67587 -2.53304,-1.11268 -0.613901,-0.35988 -1.483275,-1.00298 -2.289601,-1.32798 -2.071789,-0.83527 -4.616724,-0.81121 -6.803755,-0.58747 -1.753019,0.17922 -4.025833,0.9591 -5.563278,1.82915 -1.544726,0.87386 -3.033281,2.34734 -4.123636,3.73638 -1.371716,1.74773 -2.121607,3.24725 -2.618419,5.42701 -0.635038,2.78364 -0.811078,6.96528 -0.04336,9.7099 0.605051,2.16286 2.614056,5.4853 4.324244,7.11395 1.686666,1.60645 3.634234,2.38185 5.849017,2.80597 -0.08671,0.44697 -0.101031,0.86381 -0.215548,1.2303 -0.162838,0.5202 -0.474214,1.10012 -1.113881,0.91669 -0.255069,-0.0731 -0.391601,-0.13647 -0.72795,0.15779 -0.336098,0.29421 -0.161114,1.43067 0.784786,1.9407 0.479621,0.25863 0.985799,0.31481 1.753936,0.33013 0.768126,0.0153 1.966983,0.0187 2.800935,-0.12742 0.833813,-0.14591 1.331943,-0.80765 2.255499,-0.91128 1.427232,-0.15964 2.520088,-1.19078 3.664485,-1.92825 0.477509,-0.30781 0.638609,-0.311 0.913773,-0.46655 -0.148678,0.45517 -0.346924,0.92793 -0.445783,1.36553 -0.09908,0.43759 -0.05684,0.84294 -0.1095,1.19317 -0.05239,0.34996 -0.14947,0.62208 -0.206042,0.90597 -0.228638,0.20446 -0.30172,0.51543 -0.685789,0.61323 -0.384333,0.0976 -0.986075,-0.0544 -1.379261,-0.10722 -0.393185,-0.0527 -0.656716,-0.26711 -0.965189,-0.20843 -0.308723,0.0586 -0.6012,0.27954 -0.859855,0.48663 -0.25864,0.2071 -0.480941,0.23737 -0.690277,0.75413 -0.209349,0.51676 -0.401384,1.57498 -0.430066,2.28232 -0.02862,0.70735 0.05058,1.34583 0.260225,1.90712 0.209613,0.56131 0.393852,0.81016 0.961492,1.36604 0.56764,0.55601 1.491989,1.37185 2.414364,1.94016 -0.169828,0.2515 -0.245161,0.48173 -0.510027,0.75465 -0.264851,0.27305 -0.817025,0.579 -1.062713,0.86698 -0.245439,0.28799 -0.369938,0.49456 -0.373495,0.81756 -0.0042,0.32288 0.01251,0.74263 0.274107,1.09471 0.653007,0.87664 1.425369,1.03365 2.364531,1.446 -0.157934,0.98622 -0.286795,1.69077 -0.0585,2.67551 0.0931,0.40125 0.300148,1.31106 0.795097,1.54447 0.495088,0.2334 1.449701,0.12034 2.053946,0.21635 0.604258,0.0961 0.942469,0.18727 1.413488,0.28086 0.286266,0.41379 0.712497,0.87042 0.858533,1.24125 0.146303,0.371 0.102145,0.50396 -0.02057,0.88274 -0.122706,0.37877 -0.540807,0.93029 -0.659218,1.37383 -0.118402,0.44355 -0.141424,0.92105 -0.03099,1.36578 0.110759,0.44472 0.300148,0.76746 0.679187,1.16236 0.378914,0.39505 1.124443,0.70522 1.495824,1.02533 0.37165,0.32023 0.74157,0.35868 0.64019,0.88852 -0.13942,0.72771 -1.202674,1.90791 -1.97187,2.18891 -0.460985,0.1685 -1.079764,0.11537 -1.639609,-0.12091 0.03794,0.62156 0.575825,1.04052 0.927252,1.45326 -0.95171,-0.27211 -1.874599,-0.79312 -2.512944,-1.48367 0.197982,0.59976 0.879142,1.56257 1.897986,2.40802 1.018857,0.84547 1.012645,0.67244 1.519087,1.00881 -0.924084,0.18568 -1.783411,0.13549 -2.499202,0.006 0.392394,0.21635 1.035631,0.5206 1.88769,0.61006 0.852045,0.0894 1.377398,0.0261 2.14527,-0.16031 0.768,-0.1866 1.46899,-0.8847 2.39955,-1.36591 -0.0906,0.34522 -0.15515,0.76034 -0.54649,1.11533 -0.39134,0.35499 -0.98343,0.53554 -1.61279,0.84255 0.80117,-0.0908 1.64306,-0.11837 2.43035,-0.29195 0.58284,-0.12854 0.97444,-0.265 1.40093,-0.47619 0.42622,-0.2112 0.75532,-0.51927 1.132887,-0.77885 -0.180917,0.3456 -0.234567,0.75215 -0.542517,1.0371 -0.30793,0.28494 -0.80844,0.39106 -1.21326,0.5868 0.42227,-0.01 0.8284,0.0822 1.26613,-0.0278 0.437987,-0.1101 0.848747,-0.28309 1.304057,-0.61852 0.4553,-0.33544 0.92487,-0.74844 1.31343,-1.17071 0.38829,-0.42225 0.86779,-0.96968 1.0129,-1.35903 0.14538,-0.38948 -0.0872,-0.66187 -0.13091,-0.99241 0.26817,0.17617 0.59803,0.27318 0.80407,0.52891 0.20605,0.25573 0.38871,0.48927 0.29751,0.93506 -0.0913,0.44578 -0.50276,0.99069 -0.79365,1.48657 0.86806,-0.70986 1.35283,-0.98315 1.5594,-1.83945 0.19335,-0.80171 -0.30689,-1.52939 -0.68712,-2.13562 -0.18886,-0.30108 -0.47143,-0.58125 -0.64798,-0.87188 0.39211,-0.38368 0.84029,-0.71342 1.17637,-1.15102 0.33597,-0.43746 0.47711,-1.02955 0.82008,-1.44811 0.3431,-0.4187 0.80461,-0.68368 1.20652,-1.02505 -0.35328,0.75887 -0.93387,1.68971 -1.05996,2.27704 -0.1259,0.58733 0.14129,0.94681 0.34971,1.26389 0.20856,0.31703 0.54505,0.38775 0.86421,0.58255 0.31918,0.19495 0.81559,0.0412 1.00578,0.33054 0.19004,0.28917 0.24105,0.72427 0.0593,1.01079 l -0.74541,1.17652 c 0.27464,-0.13868 0.74778,-0.54187 0.96109,-0.82787 0.21331,-0.28601 0.54056,-0.5502 0.58535,-0.9369 0.0448,-0.38658 0.0665,-0.72214 -0.18383,-1.06657 -0.25059,-0.34428 -0.93651,-0.45952 -1.24352,-0.72425 -0.30703,-0.26473 -0.47923,-0.43707 -0.46165,-0.77923 0.0176,-0.34217 0.35169,-0.58694 0.63902,-0.80262 0.87715,-0.65791 2.0024,-1.26414 2.74726,-2.05713 0.42082,-0.44804 0.62276,-0.80976 0.70734,-1.1189 0.0845,-0.30899 -0.006,-0.55006 -0.21398,-0.93016 -0.20906,-0.38022 -0.92605,-0.88787 -1.01328,-1.30088 -0.0871,-0.41288 0.27502,-0.50156 0.60187,-0.64719 0.32684,-0.14566 0.94762,0.0746 1.25079,-0.1787 0.30306,-0.25335 -0.0891,-0.78571 0.25256,-1.07765 0.34152,-0.29196 1.12327,-0.12896 1.52676,-0.44302 0.40349,-0.31414 0.57028,-0.70403 0.70932,-1.15973 0.13904,-0.4557 0.15477,-0.95489 0.0606,-1.28489 -0.0942,-0.33001 -0.37733,-0.38777 -0.5481,-0.5588 -0.17074,-0.17102 -0.31889,-0.31281 -0.0913,-0.56789 0.22759,-0.25495 0.97338,0.0143 1.40211,-0.3131 0.42875,-0.32736 0.16628,-1.11149 0.46946,-1.44203 0.30304,-0.33055 0.84702,-0.20115 1.13409,-0.30676 0.28693,-0.10555 0.39953,0.26698 0.57557,-0.32221 0.17604,-0.58931 0.1808,-2.3459 0.41765,-3.00142 0.23683,-0.65554 0.70189,-0.0443 0.91786,-0.69585 0.21595,-0.65141 0.0108,-1.69326 0.10855,-2.67723 l 0.44076,-2.67722 c 1.53758,1.03285 2.55259,1.35718 4.2045,1.64901 0.13785,4.0418 0.51756,6.42193 -0.85429,10.90609 -1.37186,4.48405 -4.1482,7.12678 -7.89359,10.92317 4.94225,-3.70269 7.30174,-6.71285 8.77855,-10.5691 1.47704,-3.85678 1.19343,-7.0821 1.04489,-10.79588 z m -26.261887,-1.62455 c -0.38023,0.0171 -0.84227,0.11357 -1.10925,0.28694 -0.2671,0.17339 -0.55059,0.31506 -0.79297,0.56181 -0.60479,0.61588 -1.05837,1.35863 -1.25886,2.21215 -0.12785,0.54412 -0.14683,1.24194 -0.19336,1.88082 0.18304,-0.5905 0.3061,-1.20626 0.56685,-1.7353 0.41117,-0.83422 1.10964,-1.64848 1.97703,-2.02342 0.28627,-0.12396 0.47724,-0.101 0.63479,-0.0791 -0.0705,0.11825 -0.18847,0.21741 -0.19362,0.39068 -0.006,0.17326 0.0335,0.51226 0.32736,0.65473 0.47367,0.22983 1.00022,0.0682 1.36604,-0.25521 0.36887,-0.32591 0.49456,-0.8773 0.30148,-1.3511 -0.2301,-0.56461 -1.10689,-0.56606 -1.62549,-0.54306 z m 4.767387,-0.80354 c -0.0477,-0.97076 -0.39807,-1.78937 -1.26798,-2.26542 -0.44987,-0.24609 -1.14294,-0.56434 -1.779827,-0.63915 -0.61178,-0.0718 -2.09995,-0.0193 -2.99509,0.38922 -0.68738,0.31376 -1.15564,0.80223 -1.75923,1.15921 -0.60345,0.3571 -1.03271,0.59646 -1.607369,0.99691 -0.882047,0.6147 -1.399077,1.29151 -2.010589,1.69725 -0.294061,0.19493 -0.707731,0.16599 -1.098149,0.2852 0.30358,0.0902 0.700336,0.18952 1.027834,0.0849 0.408388,-0.13062 0.979335,-0.50393 1.296133,-0.77156 0.559831,-0.47288 0.850071,-0.70363 1.461055,-1.06036 0.364765,-0.21251 0.965455,-0.46295 1.366305,-0.72437 0.40111,-0.26142 1.09735,-0.83501 1.48274,-1.02915 0.48993,-0.24662 1.37199,-0.38381 1.91743,-0.36781 0.75147,0.0219 1.839177,0.14589 2.420697,0.6735 0.57769,0.52442 0.79706,0.98579 0.66677,1.66683 -0.21754,-0.25058 -0.3624,-0.56539 -0.58034,-0.75174 -0.45146,-0.38565 -0.96954,-0.40429 -1.531507,-0.33119 -0.63134,0.0821 -0.94919,0.44683 -1.15775,1.0462 0.14037,-0.10315 0.39834,-0.32948 0.602,-0.39968 0.47805,-0.16493 0.839507,-0.11417 1.287267,0.1259 0.52866,0.28364 0.38487,0.70337 0.461,1.17018 0.035,0.2153 0.11621,0.3887 0.17418,0.58311 0.19878,-0.0527 0.38261,-0.13535 0.53301,-0.28442 -0.006,0.21807 0.0255,0.40877 -0.0192,0.65408 -0.0444,0.24516 -0.16388,0.53645 -0.24568,0.8046 0.36807,-0.3682 0.74474,-0.71103 0.9825,-1.18642 0.23802,-0.47566 0.39927,-1.0035 0.37376,-1.52583 z m -0.63703,-7.06547 c -0.27132,-0.40269 -0.35075,-1.02041 -0.51808,-1.52263 0.0668,0.6361 -0.0617,1.33563 0.24887,1.79635 0.31059,0.46073 0.85602,0.37998 1.3079,0.51398 -0.35156,-0.26802 -0.76722,-0.38499 -1.03869,-0.7877 z m 6.49595,9.43224 c -0.34838,-0.28204 -1.28859,-0.0565 -1.99182,-0.006 0.50539,0.12938 1.01078,0.25891 1.51619,0.3883 0.0471,0.17194 0.0258,0.369 0.14114,0.51556 0.11549,0.1467 0.3349,0.20102 0.5022,0.30135 -0.0165,-0.45174 0.18068,-0.91709 -0.16771,-1.19899 z m -4.95492,-19.58923 c -0.41975,0.22599 -0.95249,0.52481 -1.32323,0.53406 -0.37071,0.01 -0.46772,-0.24238 -0.68578,-0.38762 -0.34311,1.11876 -0.73695,2.34801 -1.3211,3.36315 -0.24479,0.4253 -0.40087,0.22758 -0.586947,0.65499 -0.18582,0.42729 -0.26843,1.29679 -0.44473,1.84276 -0.17657,0.54597 -0.40679,0.94775 -0.61019,1.42155 0.51649,-0.73179 1.183787,-1.66486 1.471637,-2.27386 0.28758,-0.60889 0.10351,-0.66188 0.33635,-1.24182 0.23286,-0.57993 0.70363,-1.48392 1.05545,-2.22588 0.25191,0.0336 0.56382,0.0793 0.75531,0.0203 0.19151,-0.0591 0.15332,-0.26273 0.32633,-0.39437 0.17327,-0.13161 0.4644,-0.0806 0.70707,-0.29077 0.24264,-0.21001 0.2979,-0.641 0.31983,-1.02242 z m 2.26012,5.52032 c -0.39503,-0.0345 -0.88561,0.0713 -1.25554,0.0502 -0.36993,-0.021 -0.63399,-0.11704 -0.95106,-0.17551 0.0588,-0.55721 0.002,-1.58094 0.51741,-1.95297 0.33227,-0.24028 1.69686,-0.0593 2.06136,0.0193 0.82022,0.17684 1.77535,0.66637 2.5686,0.97246 -0.7602,-0.53103 -1.41693,-1.02322 -2.32871,-1.29732 -0.54809,-0.16481 -1.82716,-0.37905 -2.39284,-0.22627 -0.25822,0.0696 -0.31043,0.17657 -0.46705,0.39544 -0.53843,0.75175 -0.53686,1.40146 -0.67655,2.27716 -0.13729,0.21399 -0.28362,0.35673 -0.3949,0.57744 -0.11105,0.22071 -0.17391,0.56803 -0.20497,0.85192 0.14087,-0.20432 0.0547,-0.4606 0.44499,-0.61272 0.39054,-0.15211 0.98844,-0.01 1.51457,0.0449 -0.38352,0.27674 -0.57411,0.54331 -0.58877,1.12841 -0.0171,0.68698 0.56447,1.1814 1.17174,1.22846 0.84308,0.0654 1.27777,-0.1198 1.61874,-0.8403 0.14935,-0.3156 0.0412,-0.69531 0.0536,-1.00299 1.01303,0.0704 0.99651,0.0374 1.73688,0.65474 -0.40242,0.58959 -0.65592,0.92858 -1.32096,1.28133 -0.37296,0.19797 -0.79522,0.3904 -1.2574,0.46904 -0.46231,0.0787 -1.22053,0.15464 -1.7061,0.08 -0.48571,-0.0745 -0.76087,-0.21318 -1.12088,-0.54609 -0.36014,-0.33307 -0.39319,-0.80991 -0.5338,-1.18684 0.032,0.36278 0.0737,0.82483 0.20829,1.08797 0.40971,0.79997 1.11823,1.03708 1.9642,1.03973 0.81201,0.002 1.81645,-0.18465 2.5719,-0.49786 0.60399,-0.25032 1.60526,-0.95925 1.84289,-1.57512 0.16243,-0.42082 0.0338,-0.93717 0.0508,-1.40582 -0.83634,-0.55614 -1.0433,-0.41935 -2.03281,-0.58218 -0.41393,-0.0683 -0.69862,-0.22191 -1.09365,-0.25666 z m 4.87168,-3.7668 c -0.0235,-0.33317 -0.0605,-0.32603 -0.0906,-0.48912 0.76193,-0.2038 1.06748,0.2905 1.51419,1.20851 0.1672,0.34349 0.002,0.54795 0.18108,0.77408 0.17907,0.22613 0.46772,0.1944 0.75861,0.41155 0.29088,0.21701 0.57914,0.63266 0.85113,0.85747 0.55812,0.46138 1.3125,0.74303 1.95985,1.05347 -0.4421,-0.32616 -1.29997,-0.82086 -1.57749,-1.29479 -0.14724,-0.25125 -0.1255,-0.72507 -0.3546,-0.95092 -0.22904,-0.226 -0.30926,-0.38234 -0.60506,-0.43998 -0.29577,-0.0576 -0.17683,-0.40046 -0.27225,-0.67297 -0.0955,-0.27252 -0.28546,-0.46601 -0.48769,-0.73826 -0.2022,-0.27227 -0.45727,-0.68104 -0.85654,-0.82946 -0.39927,-0.14856 -1.02189,0.0126 -1.32414,-0.0734 -0.30214,-0.0854 -0.12854,-0.30518 -0.34812,-0.43708 -0.2198,-0.13187 -0.64707,-0.0738 -0.9406,-0.21478 -0.52033,-0.25017 -0.76919,-0.66781 -1.08216,-1.11492 -0.0454,0.96242 -0.0343,1.65535 0.31151,2.5608 0.38948,1.0191 0.78426,1.61939 1.88967,2.24611 0.38089,0.21583 0.75995,0.29075 1.07568,0.40404 -0.18412,-0.25112 -0.44765,-0.36016 -0.55245,-0.75335 -0.10447,-0.39345 -0.0264,-1.17361 -0.0498,-1.50692 z m -17.847068,4.69274 c 0.525617,0.0341 0.650241,-0.035 1.070787,0.26169 -0.227984,0.35471 -0.45583,0.70944 -0.68355,1.06417 0.02015,-0.70021 -0.04808,-0.84056 -0.387237,-1.32586 z m 1.377151,-0.50883 c -0.727967,-0.31006 -1.362213,-0.56091 -2.154141,-0.61047 -0.317451,-0.02 -0.810287,0.0291 -1.13092,0.0437 -0.27305,-0.40202 -0.62103,-0.7191 -0.748571,-1.17796 -0.0845,-0.30437 -0.04279,-1.71708 0.106721,-2.08383 0.435487,-1.06734 0.8588,-1.11241 1.458166,-1.72379 0.434943,-0.44341 0.452259,-1.11863 0.582301,-1.87527 0.04767,-0.27794 0.184115,-0.62963 0.248079,-0.91643 0.783466,-0.13201 1.626005,-0.17551 2.527355,-0.13049 -0.43707,-0.4192 -0.85959,-0.80222 -0.98502,-1.43157 -0.12521,-0.62937 -0.0232,-1.40318 0.33452,-1.96753 0.35776,-0.56434 0.92923,-1.05598 1.45378,-1.51577 0.52483,-0.4598 1.27697,-0.83936 1.77417,-1.21552 -0.64668,-0.23153 -1.30697,-0.57172 -1.94042,-0.69452 -1.65019,-0.32008 -3.072001,0.16945 -4.663642,1.13172 -0.925417,0.55972 -1.690763,1.09141 -2.658203,2.10418 -0.967178,1.01263 -2.166812,2.87019 -3.103194,3.97178 -0.93637,1.10157 -1.692349,1.9728 -2.50925,2.62978 -0.817039,0.65712 -1.556482,0.84426 -2.334528,1.26624 l -1.21274,1.2878 -0.981434,-1.21444 -1.579217,0.17855 -0.326316,-1.77258 -1.449438,-0.39714 0.236448,-2.38951 -1.042107,-0.73959 0.783189,-1.48671 -0.79575,-1.62454 1.037479,-1.85702 -0.400051,-1.78804 1.201095,-1.0236 0.156751,-1.90012 1.675561,-0.63914 0.672184,-1.65311 1.883853,-0.0211 0.924084,-1.22714 1.268244,0.0888 1.413751,-0.15397 0.799448,-0.59024 1.160266,0.77026 1.403969,-0.73206 2.790888,1.05956 -1.819362,-1.58227 -1.884909,-0.30105 -1.444019,-0.36809 -1.950196,0.64046 -1.716539,-0.43482 -1.655078,0.97841 -1.75142,-0.0968 -0.860383,1.54379 -1.743903,0.20129 -0.943512,1.7164 -1.096816,0.59884 -0.291158,2.19879 -0.976821,0.92648 0.429525,1.92388 -1.150735,1.45697 1.078974,1.56112 -1.153779,0.97577 1.474938,1.30722 -1.493837,1.5557 1.804019,0.58177 -1.175053,1.66857 1.473618,0.25428 -0.966384,1.83468 1.66076,-0.0222 -0.836592,1.37422 1.821612,-0.21925 -0.43575,1.97702 1.376621,-1.21101 0.471561,2.39612 0.949986,-1.72051 0.514515,2.14594 1.172677,-1.58238 -0.03195,2.25021 1.296119,-2.0233 c -0.273315,1.14797 -0.218591,2.40498 -0.972583,3.48726 -2.336126,-0.31612 -3.863009,-0.90479 -5.652756,-2.62701 -1.630105,-1.56851 -3.578452,-4.83889 -4.106044,-6.91318 -0.602007,-2.36704 -0.620516,-6.7205 -0.02766,-9.13037 0.570684,-2.32027 1.312379,-3.42857 2.637582,-5.32194 1.266644,-1.34531 2.512416,-2.76645 4.120052,-3.72584 2.359903,-1.40818 5.385917,-1.78789 8.075443,-1.75127 1.48921,0.0203 2.486778,0.30634 3.377163,0.63015 1.55701,0.56618 2.802254,1.80125 4.385181,2.41158 0.516224,0.1989 0.930031,0.2051 1.336557,-0.0126 -0.398076,0.79642 -0.831173,1.15366 -1.823974,1.44349 -0.71818,0.20961 -2.431804,0.0772 -3.611498,-0.0319 -1.266394,-0.11705 -1.926946,-0.49349 -3.650476,-0.46984 -1.683232,0.023 -3.017024,0.66254 -3.746308,1.07952 -1.504677,0.86038 -2.583651,1.81485 -3.521213,3.3268 -0.514919,0.83025 -0.875586,1.76703 -1.129611,2.72297 -0.254014,0.95592 -0.365297,2.02659 -0.381556,2.96244 -0.01626,0.93584 0.0553,1.77124 0.284155,2.61339 0.5354,1.97161 1.716541,3.97785 4.142786,3.66792 1.484721,-0.18978 3.723044,-2.97657 4.472673,-3.99899 1.51261,-2.06347 3.068967,-4.34685 4.969594,-6.06523 1.158809,-1.0474 2.745432,-1.76821 4.303498,-1.91083 2.923051,-0.26748 3.789911,0.28774 5.990171,2.10127 -0.44764,0.14275 -0.88457,0.22151 -1.34331,0.42822 -1.01805,0.45874 -1.94914,1.05161 -2.76128,1.81208 -0.85101,0.79708 -1.23282,1.30155 -1.26309,2.44291 -0.02,0.75794 0.60346,1.36563 1.17507,1.91226 0.3497,0.33477 0.81253,0.64125 1.09577,0.9011 0.37534,0.3448 0.84015,0.72201 0.3686,1.27128 -0.17737,0.20643 -0.4853,0.36212 -0.74501,0.55495 -0.41221,0.30597 -0.22348,1.44309 0.31957,1.74468 0.69492,0.38552 1.5253,0.34244 2.09836,-0.17367 -0.72333,-0.1083 -1.18274,-0.20418 -1.16396,-0.79588 0.0111,-0.34296 0.44684,-0.6279 0.87479,-0.82298 1.03206,-0.4705 1.811562,-0.40112 2.838732,-1.14018 1.03748,-0.74685 1.06034,-1.15576 1.3408,-2.3283 0.50023,0.0524 0.96083,0.0639 1.62971,0.28533 0.66887,0.22137 1.40806,0.74844 2.01535,0.87889 1.52939,0.32909 1.83416,0.23155 2.67115,0.0148 1.47363,-0.38142 3.39237,0.27159 5.29842,0.88127 0.31692,0.10135 1.59878,0.002 2.46168,0.30622 1.33274,0.46759 3.20271,1.59997 4.28275,2.50952 1.63644,1.37832 3.78699,5.50327 5.00212,10.23788 0.1277,1.43926 -0.28165,2.40895 0.62499,3.11193 0.90664,0.70296 0.88153,2.50396 1.18894,3.00909 0.3074,0.505 0.66333,0.28176 1.32506,0.99109 0.66175,0.70931 0.99863,0.59076 0.98198,1.93197 -0.57028,-0.37496 -1.40173,-0.81083 -2.13179,-0.83713 -0.64655,-0.0234 -0.65342,0.82787 -2.31287,-0.81267 -0.88746,-0.87771 -2.5925,-0.90453 -3.7755,-1.29164 -1.18313,-0.38711 -3.31505,-1.18485 -5.45028,-3.57197 -2.13523,-2.38713 -3.15698,-4.90021 -3.57104,-8.5334 -0.0659,0.64418 -0.18042,1.37068 0.0955,3.14761 0.27584,1.77694 0.87029,3.77274 -0.38208,6.16331 l -0.78029,1.48934 c 0.46455,-0.63399 1.37199,-1.66816 1.64517,-2.4051 l 0.63015,-1.70002 c 1.40979,2.21348 1.73384,2.60943 3.69224,4.19525 0.078,0.98383 0.0972,2.00994 -0.22441,2.95134 -0.32156,0.94128 0.19098,2.02634 -0.0536,2.64631 -0.24464,0.61997 -0.81042,0.2671 -0.9952,0.89474 -0.18476,0.62764 0.0965,1.86853 -0.19004,2.48031 -0.28652,0.6118 -0.98951,0.24053 -1.33022,0.43812 -0.34072,0.19771 -0.45213,0.46865 -0.63439,0.72862 -0.18212,0.25982 0.0713,0.87413 -0.29935,1.07355 -0.37045,0.19957 -0.9484,0.0305 -1.33391,0.22205 -0.38552,0.19151 -0.44409,0.65183 -0.3517,1.0643 0.0925,0.41249 0.50447,0.60175 0.6854,1.0211 0.1808,0.41948 0.16059,0.71142 -0.0567,1.09656 -0.21726,0.38525 -0.69833,0.59737 -1.17782,0.79178 -0.4795,0.19442 -1.15326,0.0852 -1.64806,0.35407 -0.49483,0.26883 -0.93957,0.80447 -1.20086,1.19382 -0.26128,0.38923 -0.33384,0.66386 -0.3205,1.07317 0.0139,0.40918 0.17948,0.88061 0.39795,1.27591 0.21847,0.39531 0.70047,0.87637 -0.0521,1.63129 -0.75254,0.75479 -0.72479,0.4294 -1.15589,0.91906 0.047,-0.84703 0.39688,-1.53707 0.14099,-2.17474 -0.25599,-0.63769 -1.02452,-0.74857 -1.4296,-1.03537 -0.40509,-0.28693 -0.63834,-0.68104 -0.95766,-1.02148 0.004,0.43812 -0.0423,0.90914 0.006,1.23902 0.10148,0.67072 0.29949,1.26613 -0.70007,1.37371 -0.45029,0.0484 -0.87783,-0.24358 -1.35163,-0.41883 0.2482,0.44446 0.67985,0.80183 0.74474,1.33379 0.0649,0.5317 -0.0126,1.11585 -0.3813,1.64359 -0.36834,0.52746 -1.00431,0.91919 -1.47031,1.22925 -0.46588,0.31017 -0.71554,0.33503 -1.07358,0.50274 -0.0176,0.52284 0.0853,1.0762 0.0259,1.56865 -0.0597,0.49245 -0.21476,0.92831 -0.49944,1.33538 -0.28495,0.4072 -0.74183,0.64072 -1.172152,0.94179 0.235912,-0.54939 0.714472,-1.07064 0.708002,-1.64819 -0.007,-0.57744 -0.17961,-0.98676 -0.742902,-1.49914 -0.56327,-0.51253 -1.882,-0.95699 -2.50382,-1.45526 -0.62184,-0.49838 -0.82246,-0.80368 -1.04568,-1.28754 -0.22323,-0.48384 -0.16111,-1.26333 -0.20235,-1.69829 -0.20472,0.60928 -0.23393,0.79867 -0.30039,1.43609 -0.0668,0.63755 0.3715,1.53177 0.55706,2.00373 -0.76919,-0.37152 -1.2574,-0.96532 -1.50388,-1.54565 -0.16495,0.0979 -0.0819,0.36595 -0.14248,0.88271 -0.27411,-0.27279 -0.585751,-0.48265 -0.861706,-0.74011 -0.276219,-0.25719 -0.578745,-0.48346 -0.715791,-0.84253 -0.13674,-0.35909 -0.08074,-0.74091 0.02112,-1.15815 0.101857,-0.41724 0.568169,-0.9011 0.819291,-1.35746 0.250845,-0.45621 -0.04447,-0.90412 -0.02737,-1.45393 0.502359,-0.0863 0.928979,-0.34216 1.506399,-0.25903 0.57769,0.0829 1.2393,0.73126 1.82966,0.7388 0.59037,0.006 0.92184,-0.54558 1.40583,-0.69756 0.48397,-0.152 0.97364,-0.13536 1.460259,-0.20301 -0.616409,-0.5905 -3.008819,-0.87174 -4.645269,-1.13858 -1.439913,-0.23486 -2.868868,-0.37059 -4.327811,-0.39106 -0.651575,-0.01 -1.48896,0.20589 -1.941343,0.0758 -0.452802,-0.12979 -0.356193,-0.43812 -0.49046,-0.77421 -0.375607,-0.93943 -0.190451,-1.77602 0.0139,-2.72205 1.309736,-0.15357 2.674462,-0.34149 3.994107,-0.24012 1.290185,0.0991 2.817989,0.71248 4.148729,0.75399 1.15696,0.0359 2.8702,-0.22165 3.863657,-0.82722 1.21405,-0.73998 2.15334,-2.32924 2.48679,-2.83952 0.54307,-0.83116 1.22806,-2.4618 1.64491,-3.20735 0.41658,-0.74552 0.50843,-0.95408 0.85509,-1.26532 0.34666,-0.31112 0.82153,-0.33517 1.23216,-0.50289 -0.47341,0.0484 -0.9903,-0.10147 -1.42036,0.14512 -0.64614,0.37072 -1.36934,1.90725 -1.77139,2.57586 -0.42595,-1.42788 -0.32656,-1.98931 -1.55912,-2.79445 0.99333,1.11334 1.01805,1.95667 1.26017,3.26746 -0.82602,1.35574 -1.97438,3.51529 -3.47708,4.11451 -0.542797,0.21663 -1.474937,0.35248 -2.061737,0.42504 -1.82624,0.22612 -3.58771,-0.3526 -5.381291,-0.79548 -1.311058,-0.32381 -2.641418,-0.19336 -4.235962,-0.0997 -0.541349,0.0316 -1.817776,-0.29393 -2.0821,-0.84148 -0.142744,-0.2954 -0.132154,-0.65039 0.07282,-0.96519 0.205249,-0.31483 0.751879,-0.46708 1.044885,-0.75044 0.293006,-0.28335 0.461513,-0.61971 0.692263,-0.92963 1.217883,0.23368 2.219689,0.3234 3.123679,0.34798 -0.648392,-0.2671 -1.27048,-0.41947 -1.945304,-0.68341 -0.674824,-0.26394 -1.441113,-0.69716 -1.985755,-1.05663 -0.544643,-0.35963 -0.892374,-0.56817 -1.286475,-0.98661 -0.393853,-0.41869 -0.899113,-0.84994 -1.189477,-1.36167 -0.290617,-0.51175 -0.335558,-1.08414 -0.351817,-1.71746 -0.01626,-0.6332 0.01114,-1.52174 0.255347,-2.03189 0.243965,-0.51002 0.71447,-0.66478 1.092453,-0.78545 0.378122,-0.12062 0.637025,0.18451 1.030211,0.22574 0.393448,0.0412 0.760995,0.28918 1.329832,0.0217 0.568835,-0.26751 1.24313,-0.812 1.818304,-1.62019 0.574908,-0.80831 0.986061,-2.12941 1.572213,-3.14575 1.01038,-1.75195 2.269506,-3.38853 3.473647,-5.0119 0.0991,-0.40031 0.24806,-0.95356 0.29763,-1.49661 0.0864,-0.9463 0.1027,-1.92932 -0.19098,-2.85181 -0.22508,-0.70669 -0.55243,-1.45314 -1.29242,-1.74297 -0.29605,-0.11597 -0.670599,-0.16204 -0.935187,-0.0639 -0.264852,0.098 -0.524562,0.39674 -0.420547,0.74196 0.114365,0.37957 0.37733,0.38988 0.556009,0.58152 0.303318,0.32512 0.424647,0.56367 0.539223,0.96902 -0.327761,-0.006 -0.770764,-0.0303 -1.039981,0.0406 -0.3513,0.0925 -0.678394,0.32539 -0.856685,0.82312 0.419227,-0.37178 0.627506,-0.54239 1.150748,-0.55561 0.239741,-0.006 0.531024,0.0798 0.79628,0.11981 0.09908,0.32248 0.157404,0.71792 0.297369,0.96744 0.139964,0.24953 0.412471,0.18966 0.514781,0.4812 0.10227,0.29103 0.10825,0.76496 0.0567,1.14758 z m -3.662918,-0.43706 c -0.160573,0.0634 -0.221759,0.0772 -0.42516,0.23194 -0.203402,0.15476 -0.483984,0.30926 -0.645086,0.67905 -0.161379,0.36993 -0.153847,0.94192 -0.119504,1.17494 0.14141,-0.0416 0.334236,-0.0139 0.480941,-0.13896 0.146301,-0.12548 0.233668,-0.40945 0.42134,-0.53104 0.187934,-0.12146 0.344547,-0.0949 0.552174,-0.12119 -0.106722,0.30347 -0.158461,0.60704 -0.10895,0.88219 0.10756,0.60069 0.460722,0.90494 1.032462,0.97684 0.249663,0.0311 0.646156,-0.0509 0.863425,-0.0903 -0.100743,0.22495 -0.271327,0.42199 -0.372172,0.64693 -0.483457,-0.0698 -0.841748,-0.06 -1.101709,-0.18158 -0.259974,-0.12159 -0.538694,-0.39398 -0.872279,-0.50935 -0.333708,-0.11537 -0.63134,-0.11357 -0.996385,-0.17049 0.2876,0.2478 0.476327,0.49575 0.763509,0.74355 -0.210668,0.61232 -0.421338,1.22449 -0.631869,1.83668 -0.446575,0.27938 -0.865538,0.42661 -1.428287,0.77156 -0.563014,0.34508 -1.237977,0.96228 -1.971082,1.2989 -0.733105,0.33662 -1.169648,0.5198 -1.93566,0.66426 -0.765887,0.14444 -1.3753,0.76482 -2.129014,0.86565 -0.753728,0.10088 -2.161531,0.12118 -2.742389,0.0645 -0.659495,-0.0643 -1.516307,-0.40469 -1.593237,-1.12775 0.552981,0.13632 1.397493,0.014 1.823988,-1.02651 0.189256,-0.46204 0.09644,-1.31173 0.386181,-1.8581 0.289574,-0.54649 0.693335,-0.72187 1.175721,-1.39512 0.482399,-0.67321 1.27155,-1.73515 1.714553,-2.63717 0.442753,-0.90187 0.547032,-1.9235 0.921583,-2.73169 0.37455,-0.80803 0.93955,-1.46079 1.377399,-2.08369 0.956073,-1.36127 1.727116,-2.29157 3.302232,-2.97829 0.757564,-0.33027 1.620059,-0.41829 2.430082,-0.62751 0.329622,0.14762 0.781618,0.31071 0.861841,0.69626 0.08019,0.3855 -0.07393,0.95486 -0.353664,1.2443 -0.468254,0.48386 -1.162115,1.00682 -1.434903,1.77588 -0.175247,0.49349 -0.226136,2.14791 -0.07421,2.59688 0.157543,0.46613 0.523769,0.74803 0.828129,1.05849 z m -0.152513,3.91585 c 0.146301,0.12618 0.257848,0.25588 0.493239,0.36068 0.235114,0.10483 0.556274,0.13188 0.868305,0.20988 -0.437585,0.68115 -0.897251,1.36946 -1.316478,2.08565 -0.419477,0.71607 -0.782924,1.5002 -1.183251,2.25009 0.01889,-0.42979 -0.0069,-0.88799 0.056,-1.28964 0.06253,-0.40151 0.244507,-0.75294 0.42491,-1.35574 0.180138,-0.60279 0.401912,-1.42287 0.657245,-2.26092 z m 11.773758,-14.97727 c 0.0617,0.67008 -0.0516,1.71761 -0.19045,2.37367 -0.16625,0.78531 -0.32631,1.1925 -0.96361,1.66565 -1.16698,0.86633 -1.911997,0.72029 -2.809777,1.22264 -0.42714,0.23908 -0.96849,0.6398 -1.12643,1.06339 -0.15793,0.42358 0.10423,0.88351 0.42822,1.0643 -0.56658,0.0844 -1.2019,-0.55441 -0.93678,-1.21021 0.13062,-0.32275 0.75214,-0.46654 0.94272,-0.79219 0.19018,-0.32552 0.18979,-0.66068 0.10019,-0.99137 -0.16191,-0.59604 -1.3412,-1.13764 -1.75791,-1.60881 -0.64125,-0.72504 -0.88748,-1.33155 -0.52429,-2.26529 0.51002,-1.31169 2.48043,-2.36426 3.65972,-2.87902 0.54003,-0.23565 0.842817,-0.25244 1.264017,-0.37865 -0.862367,0.50539 -1.771507,0.90795 -2.207787,2.03769 -0.36424,0.9435 -0.0488,1.29903 -0.0609,2.12054 -0.006,0.38091 -0.50724,0.57136 -0.72993,0.81203 -0.19388,0.2092 -0.17815,0.3645 -0.0232,0.65327 0.0171,-0.26049 0.1284,-0.4549 0.32829,-0.59645 0.33015,-0.23406 0.6858,-0.1837 0.8617,-0.66359 0.26698,-0.72954 -0.26247,-1.42048 0.33279,-2.23963 0.44526,-0.61284 1.037477,-1.29878 1.836417,-1.31674 0.37811,-0.008 0.6624,0.0485 1.06628,0.16798 l 0.53845,-0.64801 0.0126,-0.008 c 1.09523,-0.99956 1.8446,-1.82333 3.381,-2.51031 1.53638,-0.68685 2.29356,-0.79086 4.05516,-0.75175 1.7616,0.0391 3.50985,0.18636 5.55018,1.94585 2.04022,1.75947 7.29859,8.49704 8.57383,9.34974 1.27511,0.85273 1.55754,1.14164 3.15091,1.14203 1.59336,4e-4 4.08014,-2.25338 4.17753,-5.07004 0.0975,-2.81681 0.13661,-3.81793 -1.82133,-7.21122 -1.95813,-3.39344 -5.50538,-4.4354 -8.1373,-4.78722 -2.63202,-0.35182 -4.21361,0.57516 -6.16051,0.57954 -1.94676,0.004 -3.87079,-0.3316 -4.43817,-1.87988 0.27767,0.16533 0.64971,0.35167 1.69592,0.29681 1.0462,-0.0549 2.49682,-1.26611 4.12864,-2.07772 1.63181,-0.81148 3.44774,-0.90651 5.77685,-0.95053 2.32912,-0.044 5.2354,0.13397 8.11468,1.6884 2.87931,1.55436 4.84472,3.20363 6.51473,6.24578 1.67002,3.04225 1.91953,5.52612 1.65033,9.20964 -0.26922,3.68353 -1.4053,6.423 -3.59273,9.119 -2.18744,2.696 -4.37355,4.01511 -8.31545,4.50557 l -0.82984,-3.66038 1.48141,2.12597 -0.0367,-2.36453 1.34001,1.66274 0.58773,-2.25496 1.08558,1.80784 0.53924,-2.51769 1.57313,1.27233 -0.498,-2.07747 2.08157,0.23036 -0.95619,-1.44402 1.89799,0.0232 -1.10435,-1.92789 1.68401,-0.26736 -1.34276,-1.75341 2.06174,-0.61125 -1.70702,-1.63459 1.68548,-1.37358 -1.31833,-1.02532 1.23282,-1.64041 -1.31502,-1.53085 0.49085,-2.02157 -1.11665,-0.97337 -0.33239,-2.31035 -1.25316,-0.62937 -1.07819,-1.80349 -1.99289,-0.21161 -0.98331,-1.62217 -2.0016,0.10183 -1.89151,-1.02809 -1.96171,0.45688 -2.22828,-0.67297 -1.65031,0.3867 -2.15373,0.31653 -2.07933,1.66262 3.18949,-1.11334 1.60445,0.76931 1.32628,-0.80949 0.91311,0.62025 1.61569,0.16176 1.44892,-0.0936 1.05624,1.28938 2.15308,0.0222 0.768,1.73703 1.91451,0.67163 0.17908,1.99661 1.37291,1.07554 -0.45744,1.87882 1.18566,1.95139 -0.90956,1.7069 0.89514,1.56216 -1.19092,0.77712 0.27016,2.51084 -1.65628,0.41736 -0.37309,1.86258 -1.80481,-0.18753 -1.12127,1.27615 -1.38587,-1.35321 c -2.52644,-1.25977 -3.56682,-1.96447 -5.5358,-4.09402 -2.24136,-2.42427 -3.52598,-4.66562 -6.51155,-6.32545 -2.14131,-1.19054 -3.88783,-1.619 -6.29322,-1.20336 -2.25839,0.39015 -3.01464,1.74484 -4.67791,3.17192 -0.1763,-0.31917 -0.21213,-0.40376 -0.50263,-0.63875 0.0912,0.41447 0.23605,0.8444 0.27293,1.24301 z" id="path6" style="fill:#000000;fill-opacity:1"/>
      </g>
      <g transform="matrix(-1.0839579,0,0,-1.0839579,216.7201,331.68581)" id="text3815" style="font-size:40px;font-style:normal;font-weight:normal;line-height:125%;letter-spacing:0px;word-spacing:0px;fill:#000000;fill-opacity:1;stroke:none;font-family:Sans">
        <path d="m 140.41838,135.13131 -4.8967,3.15114 1.75333,2.72459 -0.6206,0.39937 -2.20628,-3.42845 5.51731,-3.5505 0.45294,0.70385" id="path3009-7" style="font-size:9px;font-variant:normal;font-stretch:normal;font-family:FreeSans;-inkscape-font-specification:FreeSans"/>
        <path d="m 143.21487,139.94547 -5.83477,3.00035 -0.38688,-0.75236 5.83478,-3.00034 0.38687,0.75235" id="path3011-5" style="font-size:9px;font-variant:normal;font-stretch:normal;font-family:FreeSans;-inkscape-font-specification:FreeSans"/>
        <path d="m 141.54509,148.16389 c -0.52783,0.19872 -1.01414,0.19269 -1.45894,-0.0181 -0.4448,-0.21079 -0.76974,-0.58852 -0.97481,-1.13319 l -1.04333,-2.7711 6.14022,-2.31181 0.93868,2.49315 c 0.12895,0.34252 0.19047,0.65915 0.18454,0.94989 -0.006,0.29074 -0.0699,0.52959 -0.19183,0.71655 -0.11422,0.19045 -0.24499,0.34547 -0.39229,0.46505 -0.14171,0.11746 -0.29959,0.20896 -0.47366,0.2745 -0.62891,0.23678 -1.18208,0.12129 -1.65951,-0.34648 -0.004,0.45014 -0.0906,0.80665 -0.26089,1.06952 -0.16819,0.26847 -0.43758,0.47248 -0.80818,0.61202 m 0.88412,-2.93902 c 0.30866,0.81982 0.78868,1.1071 1.44004,0.86187 0.65136,-0.24524 0.82271,-0.77777 0.51405,-1.59759 l -0.57082,-1.5161 -1.95408,0.73572 0.57081,1.5161 m -2.65574,1.45188 c 0.10359,0.27514 0.24711,0.47755 0.43057,0.60723 0.18907,0.12756 0.36718,0.19193 0.53432,0.19312 0.16713,0.001 0.33493,-0.0299 0.50339,-0.0934 0.32006,-0.12051 0.53961,-0.31216 0.65865,-0.57496 0.12465,-0.26491 0.12038,-0.57425 -0.0128,-0.928 l -0.71986,-1.91198 -2.11412,0.79598 0.71986,1.91197" id="path3013-9" style="font-size:9px;font-variant:normal;font-stretch:normal;font-family:FreeSans;-inkscape-font-specification:FreeSans"/>
        <path d="m 143.19228,150.24334 -2.20621,0.44175 0.75981,3.79468 -0.72364,0.1449 -0.92414,-4.61539 6.43331,-1.28814 0.89233,4.45654 -0.72364,0.14489 -0.728,-3.63583 -2.05619,0.41171 0.7015,3.50346 -0.72363,0.14489 -0.7015,-3.50346" id="path3015-2" style="font-size:9px;font-variant:normal;font-stretch:normal;font-family:FreeSans;-inkscape-font-specification:FreeSans"/>
        <path d="m 144.52475,159.84107 c -0.0779,0.19457 -0.17176,0.35664 -0.28169,0.4862 -0.10976,0.13555 -0.23573,0.2326 -0.37794,0.29115 -0.14203,0.0645 -0.27572,0.10781 -0.40108,0.12981 -0.12537,0.022 -0.27501,0.0358 -0.44892,0.0413 -0.054,0.002 -0.13203,10e-4 -0.23416,-0.002 -0.10195,0.003 -0.17692,0.006 -0.22489,0.007 -0.24588,0.008 -0.45192,0.0414 -0.61811,0.10069 -0.1662,0.0593 -0.3008,0.16863 -0.40379,0.32799 l -0.20689,0.007 -0.0323,-1.01649 c 0.27204,-0.12871 0.62696,-0.20003 1.06474,-0.21394 l 0.5847,-0.0186 c 0.4018,-0.0128 0.69288,-0.10908 0.87326,-0.2889 0.18637,-0.18001 0.27365,-0.45592 0.26184,-0.82773 l -0.0686,-2.15891 -2.82458,0.0898 -0.0266,-0.83658 6.55769,-0.20846 0.0961,3.02247 c 0.0204,0.64168 -0.1169,1.13829 -0.41187,1.48984 -0.2888,0.35735 -0.71506,0.54499 -1.27877,0.56292 -0.37181,0.0118 -0.68323,-0.0593 -0.93425,-0.21343 -0.25102,-0.15411 -0.4723,-0.4112 -0.66384,-0.7713 m 1.45342,0.11588 c 0.43177,-0.0137 0.725,-0.1371 0.87968,-0.37013 0.15467,-0.23304 0.22562,-0.55045 0.21285,-0.95225 l -0.0643,-2.02397 -2.25785,0.0718 0.0643,2.02398 c 0.0141,0.44377 0.11436,0.76475 0.30075,0.96293 0.18658,0.20417 0.47477,0.30006 0.86458,0.28767" id="path3017-2" style="font-size:9px;font-variant:normal;font-stretch:normal;font-family:FreeSans;-inkscape-font-specification:FreeSans"/>
        <path d="m 146.6835,165.31749 -5.78098,-0.69832 0.10038,-0.83096 5.78098,0.69833 0.25904,-2.14442 0.73267,0.0885 -0.61738,5.11085 -0.73267,-0.0885 0.25796,-2.13548" id="path3019-8" style="font-size:9px;font-variant:normal;font-stretch:normal;font-family:FreeSans;-inkscape-font-specification:FreeSans"/>
        <path d="m 141.48469,171.11694 0.66922,-2.43886 -1.71737,-1.18985 0.23577,-0.85924 5.70793,3.99273 -0.28578,1.0415 -6.9368,0.48573 0.24768,-0.90263 2.07935,-0.12938 m 0.7389,-0.0399 3.14822,-0.1814 -2.5957,-1.83217 -0.55252,2.01357" id="path3021-9" style="font-size:9px;font-variant:normal;font-stretch:normal;font-family:FreeSans;-inkscape-font-specification:FreeSans"/>
        <path d="m 138.79914,173.02627 5.94837,2.76833 -1.06708,2.29286 c -0.3519,0.75612 -0.89168,1.22626 -1.61933,1.41044 -0.72765,0.18417 -1.55386,0.0611 -2.47861,-0.3693 -0.92476,-0.43038 -1.55242,-0.98721 -1.88299,-1.67049 -0.32765,-0.67531 -0.3168,-1.3883 0.0326,-2.13899 l 1.06708,-2.29285 m 0.31593,1.07024 -0.65316,1.40345 c -0.27341,0.58749 -0.28518,1.12469 -0.0353,1.61159 0.2499,0.4869 0.75018,0.90504 1.50087,1.25441 0.75612,0.35189 1.4009,0.46666 1.93434,0.34432 0.53343,-0.12236 0.93685,-0.47728 1.21027,-1.06477 l 0.65316,-1.40345 -4.61019,-2.14555" id="path3023-7" style="font-size:9px;font-variant:normal;font-stretch:normal;font-family:FreeSans;-inkscape-font-specification:FreeSans"/>
        <path d="m 66.323837,173.70056 2.126658,-0.73473 -1.263734,-3.65785 0.697544,-0.24099 1.537052,4.44897 -6.201334,2.14247 -1.484152,-4.29585 0.697544,-0.24099 1.210833,3.50473 1.982045,-0.68477 -1.166749,-3.37713 0.697543,-0.24099 1.16675,3.37713" id="path3025-3" style="font-size:9px;font-variant:normal;font-stretch:normal;font-family:FreeSans;-inkscape-font-specification:FreeSans"/>
        <path d="m 66.789225,166.08729 c -0.05897,-0.33078 -0.147384,-0.60451 -0.265243,-0.82119 -0.117856,-0.21667 -0.248285,-0.36712 -0.391286,-0.45133 -0.14405,-0.0901 -0.27883,-0.14532 -0.404341,-0.16561 -0.132466,-0.0251 -0.266629,-0.0256 -0.40249,-0.001 -0.490267,0.0874 -0.768218,0.5453 -0.833853,1.37367 l -0.139393,1.67953 c -0.06796,0.88365 -0.494755,1.3955 -1.280373,1.53555 -0.584774,0.10426 -1.081839,-0.0174 -1.491197,-0.36494 -0.416305,-0.35241 -0.687643,-0.88302 -0.814016,-1.59185 -0.132676,-0.74426 -0.05867,-1.35472 0.222023,-1.83139 0.274798,-0.47561 0.727685,-0.7727 1.358661,-0.89129 l 0.139002,0.77971 c -0.418329,0.0807 -0.71498,0.27983 -0.889954,0.59746 -0.180868,0.3187 -0.225498,0.73499 -0.133889,1.24889 0.07793,0.43711 0.241004,0.77066 0.489219,1.00067 0.247173,0.2241 0.533195,0.30719 0.858068,0.24927 0.248093,-0.0442 0.428803,-0.15872 0.542131,-0.34348 0.113337,-0.18476 0.188415,-0.48154 0.225233,-0.89035 l 0.145094,-1.69883 c 0.04022,-0.45817 0.181025,-0.83066 0.422429,-1.11749 0.240359,-0.29272 0.558416,-0.47436 0.954173,-0.54492 0.171301,-0.0305 0.346813,-0.0374 0.526534,-0.0207 0.172765,0.0119 0.361234,0.0605 0.565406,0.14603 0.198268,0.0865 0.381653,0.20927 0.550154,0.36816 0.168503,0.1589 0.324435,0.38402 0.467796,0.67538 0.142309,0.28546 0.247687,0.62016 0.316134,1.0041 0.04318,0.24219 0.0641,0.47919 0.06276,0.71102 0.0035,0.22488 -0.02439,0.46145 -0.08374,0.70971 -0.06525,0.24933 -0.162882,0.4709 -0.292883,0.66473 -0.135906,0.19487 -0.329713,0.37265 -0.581423,0.53332 -0.252759,0.15476 -0.555819,0.26669 -0.90918,0.33578 l -0.139002,-0.77971 0.0443,-0.008 c 0.183115,-0.0326 0.349675,-0.0898 0.499681,-0.17135 0.148957,-0.0875 0.289166,-0.20697 0.420629,-0.35839 0.130413,-0.15733 0.22076,-0.36846 0.271041,-0.6334 0.04332,-0.26979 0.03392,-0.57894 -0.02821,-0.92745" id="path3027-6" style="font-size:9px;font-variant:normal;font-stretch:normal;font-family:FreeSans;-inkscape-font-specification:FreeSans"/>
        <path d="m 63.86254,153.72134 c 0.969954,0.0631 1.756565,0.40284 2.359835,1.01927 0.603272,0.61645 0.873761,1.40366 0.81147,2.36163 -0.06151,0.94601 -0.425489,1.68896 -1.091926,2.22885 -0.672423,0.5395 -1.520553,0.77597 -2.544393,0.70939 -1.023833,-0.0666 -1.831205,-0.41068 -2.422118,-1.03234 -0.596889,-0.62204 -0.864774,-1.40306 -0.803657,-2.34308 0.0623,-0.95797 0.429462,-1.70372 1.101491,-2.23724 0.672429,-0.5395 1.535528,-0.77499 2.589298,-0.70648 m -2.954344,2.9916 c -0.04516,0.69454 0.166917,1.27052 0.63622,1.72793 0.463326,0.45703 1.099132,0.71182 1.907421,0.76438 0.808295,0.0526 1.474738,-0.11756 1.999328,-0.51035 0.518996,-0.39916 0.801074,-0.94601 0.846235,-1.64054 0.04516,-0.69453 -0.163917,-1.27031 -0.627239,-1.72734 -0.46293,-0.46301 -1.089561,-0.72021 -1.879894,-0.77161 -0.826251,-0.0537 -1.501674,0.11581 -2.026271,0.50859 -0.524587,0.39279 -0.809854,0.94244 -0.8558,1.64894" id="path3029-1" style="font-size:9px;font-variant:normal;font-stretch:normal;font-family:FreeSans;-inkscape-font-specification:FreeSans"/>
        <path d="m 65.103008,148.13258 c 0.127891,-0.16602 0.262365,-0.2964 0.403423,-0.39114 0.14251,-0.10055 0.290153,-0.15963 0.442932,-0.17726 0.154229,-0.0234 0.294652,-0.0287 0.421268,-0.0157 0.126618,0.013 0.27435,0.0405 0.443197,0.0825 0.0524,0.0131 0.127367,0.0348 0.224897,0.0653 0.09898,0.0246 0.171759,0.0428 0.218338,0.0543 0.238716,0.0594 0.446108,0.0832 0.622177,0.0714 0.176068,-0.0118 0.335344,-0.0804 0.477828,-0.20568 l 0.200871,0.05 -0.245652,0.98689 c -0.296814,0.0498 -0.657735,0.0218 -1.082765,-0.084 l -0.567678,-0.1413 c -0.390096,-0.0971 -0.696404,-0.0837 -0.918927,0.0402 -0.228342,0.12248 -0.387441,0.3642 -0.477298,0.72518 l -0.521737,2.09604 2.742321,0.68261 -0.202174,0.81222 -6.366726,-1.58478 0.730433,-2.93446 c 0.155078,-0.62298 0.422387,-1.06346 0.80193,-1.32142 0.375179,-0.26523 0.836415,-0.32973 1.383711,-0.1935 0.360988,0.0899 0.641273,0.2431 0.840856,0.45971 0.199588,0.21663 0.342512,0.52426 0.428775,0.9229 m -1.366964,-0.5072 c -0.419205,-0.10435 -0.734946,-0.0655 -0.947226,0.11665 -0.212271,0.18213 -0.366959,0.46823 -0.464065,0.85832 l -0.489129,1.96504 2.19211,0.54565 0.489129,-1.96503 c 0.107249,-0.43085 0.09817,-0.767 -0.02722,-1.00844 -0.123943,-0.24725 -0.375141,-0.41799 -0.753596,-0.51219" id="path3031" style="font-size:9px;font-variant:normal;font-stretch:normal;font-family:FreeSans;-inkscape-font-specification:FreeSans"/>
        <path d="m 68.461046,139.95073 c 0.886073,0.39958 1.503341,0.99386 1.851806,1.78285 0.348461,0.789 0.325373,1.62106 -0.06926,2.49619 -0.389706,0.8642 -0.991337,1.43208 -1.804893,1.70365 -0.819025,0.2691 -1.696187,0.19277 -2.631489,-0.229 -0.935297,-0.42177 -1.570475,-1.02742 -1.905537,-1.81695 -0.340522,-0.792 -0.317166,-1.61736 0.07007,-2.47609 0.394642,-0.87513 1.000241,-1.44451 1.816797,-1.70815 0.819028,-0.26909 1.709864,-0.18659 2.672511,0.2475 m -3.816549,1.76403 c -0.286108,0.63448 -0.289737,1.24824 -0.01089,1.8413 0.27339,0.59059 0.779279,1.05238 1.517671,1.38535 0.738397,0.33298 1.422142,0.40766 2.051238,0.22403 0.626093,-0.19155 1.082196,-0.60457 1.368309,-1.23904 0.286112,-0.63447 0.292475,-1.24701 0.01909,-1.8376 -0.27092,-0.59606 -0.767372,-1.05688 -1.489358,-1.38246 -0.754802,-0.34037 -1.446752,-0.41875 -2.075851,-0.23513 -0.629093,0.18363 -1.089164,0.59814 -1.380214,1.24355" id="path3033" style="font-size:9px;font-variant:normal;font-stretch:normal;font-family:FreeSans;-inkscape-font-specification:FreeSans"/>
      </g>
    </g>
    <g xmlns="http://www.w3.org/2000/svg" xmlns:xlink="http://www.w3.org/1999/xlink" id="g3603">
      <use transform="matrix(0.64,0,0,0.64,8.1739323,42.710372)" id="use3591" x="0" y="0" width="2485" height="1592" xlink:href="#g3014"/>
      <use transform="translate(94.999997,0)" id="use3601" x="0" y="0" width="2485" height="1592" xlink:href="#use3591"/>
    </g>
    <g xmlns="http://www.w3.org/2000/svg" xmlns:xlink="http://www.w3.org/1999/xlink" id="g3609">
      <g id="g3603">
        <use transform="matrix(0.64,0,0,0.64,8.1739323,42.710372)" id="use3591" x="0" y="0" width="2485" height="1592" xlink:href="#g3014"/>
        <use transform="translate(94.999997,0)" id="use3601" x="0" y="0" width="2485" height="1592" xlink:href="#use3591"/>
      </g>
      <use transform="translate(0,206)" id="use3607" x="0" y="0" width="2485" height="1592" xlink:href="#g3603"/>
    </g>
    <linearGradient xmlns="http://www.w3.org/2000/svg" id="linearGradient3293">
      <stop id="stop3295" style="stop-color:#ffffff;stop-opacity:1" offset="0"/>
      <stop id="stop3297" style="stop-color:#cccccc;stop-opacity:1" offset="1"/>
    </linearGradient>
    <linearGradient xmlns="http://www.w3.org/2000/svg" id="linearGradient3799-9">
      <stop id="stop3801-2" style="stop-color:#c4a000;stop-opacity:1" offset="0"/>
      <stop id="stop3815-0" style="stop-color:#c4a000;stop-opacity:1" offset="0.80769223"/>
      <stop id="stop3803-2" style="stop-color:#edd400;stop-opacity:1" offset="1"/>
    </linearGradient>
    <linearGradient xmlns="http://www.w3.org/2000/svg" xmlns:xlink="http://www.w3.org/1999/xlink" x1="135.06662" y1="-723.17877" x2="-384.7966" y2="-723.17877" id="linearGradient4973" xlink:href="#linearGradient3293" gradientUnits="userSpaceOnUse"/>
    <radialGradient xmlns="http://www.w3.org/2000/svg" xmlns:xlink="http://www.w3.org/1999/xlink" cx="100" cy="144" r="60.5" fx="100" fy="144" id="radialGradient4975" xlink:href="#linearGradient3799-9" gradientUnits="userSpaceOnUse" gradientTransform="matrix(-0.52727272,0.5272727,-0.53636357,-0.53636361,229.96363,168.50909)"/>
    <g xmlns="http://www.w3.org/2000/svg" transform="matrix(1.1787952,0,0,1.1787952,-109.94818,84.08489)" id="text7881" style="font-size:19.33501625px;font-style:normal;font-variant:normal;font-weight:normal;font-stretch:normal;line-height:125%;font-family:FreeSerif;-inkscape-font-specification:FreeSerif">
      <path d="m 1131.8644,-570.88881 c 0,-0.68317 -0.1547,-1.289 -0.464,-1.81749 -0.2965,-0.52849 -0.6639,-0.93452 -1.1021,-1.21811 -0.4254,-0.29646 -0.9088,-0.53493 -1.4502,-0.71539 -0.5285,-0.19335 -0.9925,-0.3158 -1.3921,-0.36737 -0.3867,-0.0644 -0.7283,-0.0967 -1.0247,-0.0967 -0.1547,0 -0.2321,-0.0516 -0.2321,-0.15468 0,-0.0387 0.01,-0.0709 0.019,-0.0967 l 2.1075,-4.5824 4.041,0 c 0.2062,10e-6 0.3674,-0.0322 0.4834,-0.0967 0.1289,-0.0644 0.2642,-0.19979 0.406,-0.40604 l 0.174,0.13535 -0.7347,1.72081 c -0.052,0.11602 -0.1998,0.17403 -0.4447,0.17402 l -3.7897,0 -0.812,1.64347 c 1.8819,0.33515 3.2805,0.88298 4.1957,1.64348 0.9151,0.74763 1.3727,1.84972 1.3727,3.30629 0,0.76051 -0.1224,1.43724 -0.3673,2.03018 -0.232,0.59294 -0.535,1.06987 -0.9088,1.43079 -0.3609,0.36092 -0.7863,0.65739 -1.2761,0.88941 -0.4769,0.23202 -0.941,0.3867 -1.3921,0.46404 -0.4383,0.0902 -0.883,0.13534 -1.3341,0.13534 -0.7219,0 -1.2955,-0.10312 -1.7208,-0.30936 -0.4254,-0.21913 -0.6381,-0.5156 -0.6381,-0.88941 0,-0.47693 0.2771,-0.71539 0.8314,-0.71539 0.3609,0 0.825,0.19979 1.3921,0.59938 0.5801,0.39959 1.0377,0.59939 1.3728,0.59939 0.7605,0 1.3986,-0.31581 1.9142,-0.94742 0.5156,-0.6445 0.7734,-1.43079 0.7734,-2.35887" id="path7927" style="font-size:19.33501625px;font-style:normal;font-variant:normal;font-weight:normal;font-stretch:normal;line-height:125%;font-family:FreeSerif;-inkscape-font-specification:FreeSerif"/>
    </g>
    <use xmlns="http://www.w3.org/2000/svg" xmlns:xlink="http://www.w3.org/1999/xlink" transform="matrix(0.64,0,0,0.64,8.1739323,42.710372)" id="use3591" x="0" y="0" width="2485" height="1592" xlink:href="#g3014"/>
  </defs>
  <g xmlns:xlink="http://www.w3.org/1999/xlink" transform="translate(-830.5 543.1226426)">
    <g xmlns="http://www.w3.org/2000/svg" xmlns:xlink="http://www.w3.org/1999/xlink" transform="translate(4,-1.9848326)" id="5_diamond">
      <use transform="translate(828,332.00001)" id="use7508" x="0" y="0" width="2496" height="1595" xlink:href="#card_body"/>
      <use transform="translate(624.5,332.00001)" id="use7580" x="0" y="0" width="2496" height="1595" xlink:href="#frame_oros"/>
      <g id="g3202">
        <use transform="matrix(-1,0,0,-1,2233.3797,-840.27328)" id="use3198" x="0" y="0" width="2485" height="1592" xlink:href="#text7881"/>
        <use transform="translate(-369.38024,79.99828)" id="use3200" x="0" y="0" width="2485" height="1592" xlink:href="#text7881"/>
      </g>
      <use transform="translate(207,0)" id="use3615" x="0" y="0" width="2485" height="1592" xlink:href="#g3609"/>
      <use transform="translate(-113.82199,441.50001)" id="use3796" x="0" y="0" width="2485" height="1592" xlink:href="#g3014"/>
    </g>
  </g>
</svg>
