<?xml version="1.0" encoding="UTF-8"?>
<svg xmlns="http://www.w3.org/2000/svg" xmlns:xlink="http://www.w3.org/1999/xlink" xmlns:xlink="http://www.w3.org/1999/xlink" width="211" height="322" viewBox="0 0 211 322">
  <defs xmlns:xlink="http://www.w3.org/1999/xlink">
    <rect xmlns="http://www.w3.org/2000/svg" width="207" height="318" rx="15" ry="15" x="0.5" y="-871.13782" id="card_body" style="fill:url(#linearGradient4973);fill-opacity:1;stroke:#000000;stroke-width:1;stroke-linecap:square;stroke-linejoin:miter;stroke-miterlimit:4;stroke-opacity:1;stroke-dasharray:none"/>
    <path xmlns="http://www.w3.org/2000/svg" d="m 218.5,-856.63784 178,0 0,289.00004 -178,0 z" id="frame_oros" style="fill:none;stroke:#000000;stroke-opacity:1"/>
    <linearGradient xmlns="http://www.w3.org/2000/svg" id="linearGradient3293">
      <stop id="stop3295" style="stop-color:#ffffff;stop-opacity:1" offset="0"/>
      <stop id="stop3297" style="stop-color:#cccccc;stop-opacity:1" offset="1"/>
    </linearGradient>
    <linearGradient xmlns="http://www.w3.org/2000/svg" xmlns:xlink="http://www.w3.org/1999/xlink" x1="135.06662" y1="-723.17877" x2="-384.7966" y2="-723.17877" id="linearGradient4973" xlink:href="#linearGradient3293" gradientUnits="userSpaceOnUse"/>
    <g xmlns="http://www.w3.org/2000/svg" transform="matrix(1.2241307,0,0,1.2241307,-189.60137,110.11532)" id="text7897" style="font-size:19.33501625px;font-style:normal;font-variant:normal;font-weight:normal;font-stretch:normal;line-height:125%;font-family:FreeSerif;-inkscape-font-specification:FreeSerif">
      <path d="m 1309.7451,-578.60348 c -0.232,10e-6 -0.6961,0.1418 -1.3921,0.42537 l 0,-0.27069 3.4803,-1.75949 0.1547,0.0387 0,11.60101 c 0,0.46404 0.116,0.76696 0.348,0.90875 0.232,0.14179 0.7283,0.21913 1.4888,0.23202 l 0,0.29002 -5.3365,0 0,-0.29002 c 0.7219,-0.0258 1.2052,-0.1289 1.4501,-0.30936 0.2578,-0.19335 0.3867,-0.59294 0.3867,-1.19877 l 0,-8.75877 c 0,-0.60582 -0.1933,-0.90873 -0.58,-0.90874" id="path7900" style="font-size:19.33501625px;font-style:normal;font-variant:normal;font-weight:normal;font-stretch:normal;line-height:125%;font-family:FreeSerif;-inkscape-font-specification:FreeSerif"/>
      <path d="m 1316.4737,-576.36062 c 0.064,-0.29646 0.1289,-0.55426 0.1933,-0.7734 0.065,-0.21912 0.1998,-0.53493 0.4061,-0.94742 0.2191,-0.42536 0.4576,-0.77339 0.7154,-1.04409 0.2706,-0.28357 0.638,-0.53492 1.1021,-0.75406 0.4769,-0.21912 1.0118,-0.32869 1.6048,-0.3287 1.0054,1e-5 1.8497,0.32871 2.5329,0.98609 0.696,0.6574 1.044,1.46947 1.044,2.43621 0,1.45658 -0.8249,3.04849 -2.4748,4.77575 l -3.2483,3.40296 4.621,0 c 0.4383,0 0.7605,-0.0709 0.9668,-0.21268 0.2191,-0.15468 0.5091,-0.50916 0.8701,-1.06343 l 0.2513,0.0967 -1.0634,2.64889 -7.5407,0 0,-0.23202 3.4417,-3.65432 c 1.6757,-1.77881 2.5135,-3.45451 2.5135,-5.0271 0,-0.81206 -0.2513,-1.46945 -0.754,-1.97217 -0.5028,-0.5027 -1.1601,-0.75406 -1.9722,-0.75407 -0.6703,10e-6 -1.2117,0.18692 -1.6241,0.56072 -0.3996,0.36093 -0.7928,1.01187 -1.1795,1.95283 l -0.406,-0.0967" id="path7902" style="font-size:19.33501625px;font-style:normal;font-variant:normal;font-weight:normal;font-stretch:normal;line-height:125%;font-family:FreeSerif;-inkscape-font-specification:FreeSerif"/>
    </g>
  </defs>
  <g xmlns:xlink="http://www.w3.org/1999/xlink" transform="translate(-2286.5 543.1226426)">
    <g xmlns="http://www.w3.org/2000/svg" xmlns:xlink="http://www.w3.org/1999/xlink" transform="translate(11,-1.9848326)" id="queen_diamond">
      <use transform="translate(2277,332.00001)" id="use7564" x="0" y="0" width="2496" height="1595" xlink:href="#card_body"/>
      <use transform="translate(2073.5,332.00001)" id="use7594" x="0" y="0" width="2496" height="1595" xlink:href="#frame_oros"/>
      <g id="g3304">
        <use transform="translate(884.5063,79.99828)" id="use3300" x="0" y="0" width="2485" height="1592" xlink:href="#text7897"/>
        <use transform="matrix(-1,0,0,-1,3877.4933,-840.27328)" id="use3302" x="0" y="0" width="2485" height="1592" xlink:href="#text7897"/>
      </g>
    </g>
  </g>
</svg>
